<?xml version="1.0" encoding="UTF-8"?>
<svg id="_레이어_1" data-name="레이어 1" xmlns="http://www.w3.org/2000/svg" viewBox="0 0 1406.06 287.71">
  <defs>
    <style>
      .cls-1 {
        fill-rule: evenodd;
      }
    </style>
  </defs>
  <path class="cls-1" d="m.05,0h32.48v87.09c11.9-8.11,26.28-12.85,41.76-12.85,41,0,74.24,33.24,74.24,74.24s-33.24,74.24-74.24,74.24c-15.48,0-29.86-4.74-41.76-12.85v12.85H.05V0Zm74.24,187.79c21.71,0,39.31-17.6,39.31-39.3s-17.6-39.31-39.31-39.31-39.3,17.6-39.3,39.31,17.6,39.3,39.3,39.3Z"/>
  <path d="m1216.25,222.74h-33.03v-115.08h-34.53v-33.41h34.53V18.57h33.03v55.68h34.53v33.41h-34.53v115.08Z"/>
  <path class="cls-1" d="m1340.94,222.74c-14.01,0-26.65-3.17-37.94-9.5-11.09-6.53-19.94-15.44-26.56-26.73-6.42-11.29-9.63-23.96-9.63-38.01s3.21-26.63,9.63-37.72c6.42-11.29,15.08-20.19,25.97-26.73,11.09-6.53,23.35-9.8,36.77-9.8s24.51,3.07,34.43,9.21c10.12,6.14,18,14.55,23.64,25.24,5.83,10.69,8.75,22.87,8.75,36.53,0,2.38-.19,4.85-.58,7.42-.2,2.38-.58,5.05-1.17,8.02h-104.5c.87,3.71,2.15,7.18,3.82,10.39,3.5,6.73,8.46,11.98,14.89,15.74,6.42,3.56,13.81,5.35,22.18,5.35,7.2,0,13.82-1.29,19.84-3.86,6.23-2.57,11.48-6.34,15.76-11.28l20.43,21.08c-6.81,8.12-15.08,14.25-24.8,18.41s-20.04,6.24-30.94,6.24Zm-37.64-98c-1.47,2.81-2.61,5.88-3.43,9.21h74.56c-.84-4.2-2.08-7.96-3.72-11.29-2.91-5.94-7.1-10.49-12.55-13.66-5.25-3.17-11.77-4.75-19.55-4.75-8.17,0-15.27,1.78-21.31,5.35-6.03,3.56-10.7,8.61-14.01,15.15Z"/>
  <path d="m205.34,214.56c9.95,5.45,21.24,8.18,33.88,8.18s24.14-2.63,33.88-7.88c9.74-5.45,17.3-12.93,22.69-22.42,5.6-9.7,8.39-20.91,8.39-33.64v-84.55h-34.19v83.03c0,10.71-2.69,18.99-8.08,24.85-5.18,5.66-12.74,8.48-22.69,8.48-6.42,0-12.02-1.31-16.78-3.94-4.56-2.63-8.08-6.36-10.57-11.21-2.28-5.05-3.42-11.11-3.42-18.18v-83.03h-34.19v84.55c0,12.53,2.69,23.64,8.08,33.33,5.6,9.5,13.26,16.97,23,22.42Z"/>
  <path d="m712.94,222.74c-12.64,0-23.93-2.73-33.88-8.18-9.74-5.45-17.41-12.93-23-22.42-5.39-9.7-8.08-20.81-8.08-33.33v-84.55h34.19v83.03c0,7.07,1.14,13.13,3.42,18.18,2.49,4.85,6.01,8.59,10.57,11.21,4.77,2.63,10.36,3.94,16.78,3.94,9.95,0,17.51-2.83,22.69-8.48,5.39-5.86,8.08-14.14,8.08-24.85v-83.03h34.19v149.51c0,12.73-2.8,23.94-8.39,33.64-5.39,9.5-12.95,16.97-22.69,22.42-9.74,5.25-21.03,7.88-33.88,7.88v-32.12c9.95,0,17.51-2.83,22.69-8.48,5.39-5.86,8.08-14.14,8.08-24.85v-5.82c-9.01,4.21-19.27,6.32-30.77,6.32Z"/>
  <path d="m1022.02,214.56c9.95,5.45,21.24,8.18,33.88,8.18,11.51,0,21.76-2.11,30.77-6.32v5.82c0,10.71-2.69,18.99-8.08,24.85-5.18,5.66-12.74,8.48-22.69,8.48v32.12c12.85,0,24.14-2.63,33.88-7.88,9.74-5.45,17.3-12.93,22.69-22.42,5.59-9.7,8.39-20.91,8.39-33.64V74.25h-34.19v83.03c0,10.71-2.69,18.99-8.08,24.85-5.18,5.66-12.74,8.48-22.69,8.48-6.42,0-12.02-1.31-16.78-3.94-4.56-2.63-8.08-6.36-10.57-11.21-2.28-5.05-3.42-11.11-3.42-18.18v-83.03h-34.19v84.55c0,12.53,2.69,23.64,8.08,33.33,5.6,9.5,13.26,16.97,23,22.42Z"/>
  <path d="m397.41,74.25c12.64,0,23.93,2.73,33.88,8.18,9.74,5.45,17.41,12.93,23,22.42,5.39,9.7,8.08,20.81,8.08,33.33v84.55h-34.19v-83.03c0-7.07-1.14-13.13-3.42-18.18-2.49-4.85-6.01-8.59-10.57-11.21-4.76-2.63-10.36-3.94-16.78-3.94-9.95,0-17.51,2.83-22.69,8.48-5.39,5.86-8.08,14.14-8.08,24.85v83.03h-34.19V74.25h32.48v13.05c7.17-9.26,20.25-13.05,32.48-13.05Z"/>
  <path class="cls-1" d="m964.78,148.49c0,41-33.24,74.24-74.24,74.24-15.48,0-29.86-4.74-41.76-12.85v12.85h-32.48V0h32.48v87.09c11.9-8.11,26.28-12.85,41.76-12.85,41,0,74.24,33.24,74.24,74.24Zm-34.94,0c0,21.71-17.6,39.3-39.31,39.3s-39.31-17.6-39.31-39.3,17.6-39.31,39.31-39.31,39.31,17.6,39.31,39.31Z"/>
  <path d="m555.18,74.25c12.64,0,23.94,2.73,33.88,8.18,9.74,5.45,17.41,12.93,23,22.42,5.38,9.7,8.08,20.81,8.08,33.33v84.55h-34.19v-83.03c0-7.07-1.14-13.13-3.42-18.18-2.49-4.85-6.01-8.59-10.57-11.21-4.77-2.63-10.36-3.94-16.79-3.94-9.95,0-17.51,2.83-22.69,8.48-5.39,5.86-8.09,14.14-8.09,24.85v83.03h-34.19V74.25h32.48v13.05c7.17-9.26,20.24-13.05,32.48-13.05Z"/>
</svg>