<svg width="1153" height="392" viewBox="0 0 1153 392" fill="none" xmlns="http://www.w3.org/2000/svg">
<path d="M65.6195 1.09059C94.7076 -2.82894 133.846 3.89859 164.561 19.948C180.413 28.2311 198.494 41.3039 210.542 61.4133C213.637 66.5799 216.183 71.9883 218.167 77.5782C224.273 74.4558 229.73 72.6459 233.617 71.448L238.421 69.9677L243.423 69.456C250.737 68.7085 263.008 68.3068 276.155 72.531C281.269 74.1739 286.924 76.7128 292.444 80.3601C302.453 77.4355 314.668 76.0519 327.869 79.0188C330.668 79.648 333.386 80.4438 336.016 81.3983C346.875 74.2165 360.234 68.3562 377.064 65.8892L377.432 65.8345L377.804 65.7849C402.218 62.5724 428.627 70.157 447.978 85.9487C461.552 75.6431 478.361 67.7996 498.673 65.6905C498.775 65.6792 498.879 65.6665 498.981 65.6557C499.089 65.6449 499.196 65.6315 499.304 65.6209C514.569 64.0756 532.022 67.2603 545.514 73.3606L548.191 74.6373C554.085 77.5943 559.361 80.9362 564.078 84.5677C576.395 76.2315 590.968 70.3795 607.784 68.9195L611.067 68.6363L614.361 68.7804C618.805 68.9709 623.629 69.6132 628.534 70.7824C629.065 66.1734 629.982 61.5099 631.36 56.8629C637.779 35.2215 655.402 12.4783 686.541 6.64944L690.103 6.04835C707.893 3.36447 725.521 5.41524 739.929 8.76568C755.651 12.4217 771.384 18.5225 784.678 26.3563L787.391 28.0006C801.036 36.4983 815.581 49.0756 825.855 66.1326C826.083 66.5112 826.302 66.8965 826.526 67.2801L831.25 65.8544L836.506 65.3974C841.905 64.9273 850.086 64.7295 859 66.2816C862.554 66.9006 870.405 68.4497 879.049 72.9681C879.833 72.6668 880.626 72.3768 881.424 72.0988C886.173 70.4451 893.415 68.5818 901.896 68.1942C903.018 65.9359 904.334 63.5878 905.915 61.2245L905.984 61.1202L906.059 61.0159C919.683 40.8643 938.857 35.2804 947.971 33.1173L952.119 32.1337L956.372 31.8505C964.593 31.3085 980.098 31.5187 995.532 39.5405C1011.32 47.1667 1020.23 59.9933 1024.67 70.6383C1025.22 71.9423 1025.7 73.2363 1026.14 74.5081C1030.39 73.4244 1034.72 72.5721 1039.11 71.9746L1039.53 71.915L1039.94 71.8653C1056.11 69.937 1076.55 71.341 1095.48 79.5255C1115.52 88.1922 1139.53 107.799 1143.21 142.302L1143.49 145.601C1144.09 154.591 1143.14 162.877 1141.15 170.439C1143.77 174.714 1145.85 179.066 1147.47 183.251L1148.4 185.814C1157.44 212.217 1147.54 235.262 1142.76 244.662L1142.15 245.884L1141.46 247.066C1137.11 254.604 1131.1 261.619 1126.09 266.346L1126.07 266.36C1092.47 298.004 1042.36 304.32 1001.98 287.066C1001.41 287.378 1000.84 287.691 1000.27 287.99C991.073 292.735 981.846 294.807 978.607 295.595L975.448 296.365L972.209 296.728C963.504 297.698 954.457 297.729 945.135 296.092C936.987 318.325 923.559 338.262 904.027 356.395L903.317 357.056L902.586 357.682C879.922 377.173 849.752 390.158 816.178 389.112C797.083 388.518 776.082 382.244 758.861 368.809C740.457 354.451 725.58 330.744 727.212 300.325L727.217 300.27L727.222 300.22C727.307 298.7 727.44 297.187 727.609 295.68C721.993 296.214 715.793 296.573 709.393 296.494C709.053 296.49 708.706 296.476 708.355 296.47C706.719 301.283 704.775 306.153 702.463 311.05C693.345 330.36 684.923 343.144 667.401 359.197L666.79 359.758L666.159 360.3C646.661 377.027 621.832 388.736 593.983 391.194C574.063 392.952 551.928 388.615 533.144 377.334C513.398 365.475 494.119 343.396 492.384 311.288L492.369 311.065L492.359 310.846C492.07 304.459 492.547 298.099 493.75 291.894C487.832 294.146 481.949 295.584 476.468 296.326C465.393 297.823 451.011 297.166 437.034 291.075C427.774 295.054 417.684 297.083 407.397 296.887H407.337L407.283 296.882C395.963 296.641 385.75 293.624 377.755 290.031C377.329 289.84 376.906 289.624 376.473 289.42C370.362 291.851 364.126 293.365 358.112 294.08C345.064 295.631 330.265 294.785 315.793 288.531C313.29 287.45 310.902 286.241 308.619 284.935C303.168 287.826 297.378 290.248 291.282 292.207L291.277 292.202C266.426 300.202 239.413 297.981 216.21 286.013L216.161 285.983L216.106 285.958C211.538 283.589 207.301 280.977 203.369 278.169C194.187 284.154 183.927 288.958 172.748 292.267C126.335 306.006 80.2891 307.139 45.5252 288.675C27.2937 278.992 10.6094 262.743 3.45384 239.441C-3.74886 215.984 1.02219 192.921 11.2283 174.319L12.2417 172.406C17.0685 163.013 18.1432 156.143 18.2923 151.18C18.4649 145.43 17.5471 140.408 15.7638 132.099C15.1121 130.019 14.0661 127.363 11.8294 121.845C9.94575 117.198 6.94276 109.84 4.62124 101.408L3.67242 97.7371C0.157892 83.102 -2.06281 61.2433 9.23623 39.8485C21.3372 16.9363 42.4617 6.4284 60.4035 2.06923L62.9867 1.4433L65.6195 1.09059Z" fill="black"/>
<path d="M612.184 119.602C616.053 119.768 622.004 121.219 624.445 124.326C633.405 138.277 615.57 155.043 609.02 167.644C603.408 178.449 593.132 203.449 612.954 207.088C615.278 207.513 619.847 205.46 621.767 203.755C634.171 192.739 631.519 174.011 634.807 159.294C638.029 143.26 649.157 119.955 668.448 120.312C682.877 120.582 678.432 137.877 674.618 146.154C671.57 153.953 667.008 163.374 665.617 171.589C658.872 211.412 674.725 250.645 656.461 289.333C649.694 303.665 644.948 310.777 633.039 321.688C620.766 332.216 605.743 339.087 589.512 340.52C569.584 342.278 544.408 331.307 543.178 308.543C542.896 302.322 544.589 296.169 548.012 290.967C564.794 265.42 602.588 279.043 622.209 256.213C625.963 251.839 639.182 227.916 626.004 227.763C624.464 227.746 614.358 231.754 609.527 232.17C598.449 233.13 587.441 229.656 578.926 222.508C542.862 192.141 572.21 123.072 612.184 119.602Z" fill="#73E79A"/>
<path d="M843.787 116.075C848.79 115.64 857.921 115.934 861.194 120.397C869.669 132.52 856.977 146.791 852.063 157.749C846.591 169.966 837.749 188.567 848.273 200.521C850.043 202.527 854.573 204.557 857.085 204.137C877.118 200.786 871.242 166.233 876.161 151.653C878.322 142.865 881.347 135.173 887.796 128.588C893.894 122.362 907.772 114.465 915.376 122.046C921.091 127.921 917.001 138.907 913.841 145.151C897.827 176.833 908.259 209.536 906.802 243.466C905.473 274.478 895.29 297.759 872.286 319.114C857.903 331.484 839.802 338.867 820.628 338.27C801.185 337.664 779.692 325.101 780.876 303.049C781.206 297.135 783.273 291.448 786.812 286.7C799.286 269.809 821.543 271.206 839.952 266.288C856.747 261.799 872.158 249.775 873.538 231.256C873.7 229.044 873.579 227.952 872.108 226.382C864.933 224.221 851.156 237.481 832.038 226.844C792.198 204.678 804.65 127.902 843.787 116.075Z" fill="#73E79A"/>
<path fill-rule="evenodd" clip-rule="evenodd" d="M72.4147 51.4997C108.436 46.6471 186.749 69.3769 170.05 120.715C166.243 132.415 158.445 133.83 173.214 142.692C218.021 169.578 206.885 229.105 158.311 243.486C77.8422 267.307 35.8172 235.258 55.8276 198.787C75.0826 163.692 68.977 137.418 65.1073 119.557C61.9481 108.112 55.9056 97.3743 53.1401 85.8563C48.8115 67.8298 53.9285 55.9913 72.4147 51.4997ZM120.194 149.16C115.682 149.393 110.387 151.793 108.431 155.598C101.634 168.82 105.03 197.078 113.08 208.99C118.166 216.514 131.868 213.612 139.21 210.367C155.443 201.043 162.42 184.747 152.459 167.62C147.403 159.015 139.145 152.763 129.494 150.228C126.339 149.399 123.442 149.155 120.194 149.16ZM108.594 80.6154C99.9061 80.6155 94.669 85.2768 96.2746 94.8577C98.2388 106.578 105.754 128.536 123.294 121.033C146.15 110.082 135.46 81.4312 108.594 80.6154Z" fill="#73E79A"/>
<path d="M962.584 82.6124C966.844 82.3317 971.912 82.8507 975.62 85.0465C985.521 88.9881 980.295 107.118 984.204 110.849C992.272 118.559 999.5 115.904 996.832 131.39C994.459 145.156 978.118 143.702 974.343 152.016C968.865 164.084 964.515 185.931 967.552 199.204C969.372 207.791 976.024 207.654 982.495 211.236C990.165 215.482 992.649 228.158 987.776 235.434C982.912 242.689 977.491 244.208 969.44 246.169C958.053 247.438 951.208 245.307 943.816 240.838C914.581 223.175 930.37 191.452 939.902 167.297C941.097 164.269 944.337 155.727 943.806 152.677C941.706 143.682 928.891 143.895 926.936 133.472C925.546 126.038 927.821 118.959 934.254 114.773C937.309 112.79 944.72 110.953 946.246 107.898C948.936 102.513 947.52 94.8087 951.064 89.5075C953.928 85.2716 957.688 83.7745 962.584 82.6124Z" fill="#73E79A"/>
<path d="M504.251 116.249C510.559 115.554 519.83 117.322 525.384 120.109C554.105 134.519 551.1 166.147 551.156 193.203C551.182 205.598 556.242 221.089 550.565 232.91C547.992 238.142 543.4 242.103 537.848 243.879C532.268 245.688 524.52 244.61 519.447 241.673C486.894 222.713 527.6 189.242 517.669 162.205C514.205 152.776 508.514 148.726 498.971 152.16C482.795 161.238 481.009 185.629 484.197 201.921C486.451 213.444 493.148 227.131 484.942 237.793C478.132 246.638 461.618 249.301 453.039 241.673C441.646 231.539 442.009 213.059 443.283 199.174C445.881 166.067 466.616 119.922 504.251 116.249Z" fill="#73E79A"/>
<path d="M248.599 120.059C256.184 119.284 266.252 120.342 268.877 128.752C273.457 143.433 256.535 158.943 252.076 172.438C249.134 181.347 245.265 189.498 248.852 198.946C251.778 205.74 258.322 209.902 265.434 206.576C275.148 202.03 277.184 190.256 278.718 180.481C279.951 168.495 280.847 162.197 284.515 150.456C289.781 133.61 316.117 117.946 327.481 136.889C332.715 145.618 322.36 163.782 318.534 172.816C306.811 200.503 311.12 232.403 275.723 243.779C263.745 247.644 250.719 246.573 239.533 240.804C198.068 219.294 204.589 154.174 235.877 126.557C239.71 123.173 243.802 121.537 248.599 120.059Z" fill="#73E79A"/>
<path d="M384.44 116.219C396.025 114.695 409.75 119.217 418.102 127.401C436.843 145.77 434.11 173.931 432.707 197.868C431.937 211.003 433.535 229.862 423.541 239.845C419.545 243.899 414.056 246.132 408.365 246.025C402.201 245.893 394.49 242.469 390.402 237.912C377.285 223.753 387.738 212.063 394.589 198.235C400.391 186.528 404.122 165.466 394.321 154.386C391.593 151.302 387.419 150.594 383.442 150.565C377.515 152.254 372.595 155.805 369.438 160.705C356.569 180.677 360.592 201.645 367.466 222.667C370.462 234.24 362.584 242.32 352.111 243.566C299.421 249.826 327.773 162.446 344.947 142.18C356.848 128.137 366.683 118.822 384.44 116.219Z" fill="#73E79A"/>
<path fill-rule="evenodd" clip-rule="evenodd" d="M698.765 56.6512C718.39 52.9794 744.851 60.2424 761.721 70.1832C780.113 81.02 796.645 100.781 789.177 123.462C787.601 128.243 780.24 137.583 783.126 143.129C787.066 150.693 794.678 160.105 797.602 171.912C801.36 187.083 795.742 201.584 791.388 209.527C780.688 229.01 758.642 240.081 737.384 243.516C723.532 245.753 701.971 247.921 689.187 240.481C666.615 227.343 685.177 200.331 690.822 183.099C694.155 173.01 696.651 162.987 696.937 152.279C697.474 131.751 689.649 113.265 683.847 93.9288C679.172 80.0894 681.289 59.923 698.765 56.6512ZM740.235 147.028C736.583 146.571 731.991 147.739 729.878 150.511C722.536 160.144 720.282 186.412 725.034 197.118C728.037 203.878 739.441 203.514 745.794 201.961C760.147 196.806 769.011 181.614 763.474 166.452C760.65 158.828 754.919 152.634 747.543 149.219C745.132 148.104 742.841 147.49 740.235 147.028ZM729.515 86.1692C721.552 86.9188 717.154 91.6442 719.451 100.287C722.262 110.862 731.044 130.344 746.475 121.956C766.485 109.949 754.214 84.6013 729.515 86.1692Z" fill="#73E79A"/>
<path fill-rule="evenodd" clip-rule="evenodd" d="M1066.14 119.135C1083.96 120.359 1097.08 133.548 1094.48 151.866C1091.08 175.871 1067.45 194.361 1043.88 195.931C1040.5 196.157 1035.56 196.695 1035.07 200.61C1034.73 204.51 1039.64 205.685 1042.96 206.41C1058.88 209.891 1071.34 195.346 1086.2 195.063C1095.29 194.89 1098.51 201.334 1097.76 209.407C1096.98 217.673 1091.36 222.967 1085.51 228.02C1072.68 236.713 1060.19 240.377 1044.5 240.062C1002.23 239.213 983.747 199.737 1001.06 163.059C1012.83 138.114 1036.95 118.105 1066.14 119.135ZM1061.89 159.636C1065.72 154.785 1065.79 147.09 1057.35 146.872C1041.96 146.475 1022.75 175.363 1039.13 172.545C1048.48 170.935 1056.06 167.002 1061.89 159.636Z" fill="#73E79A"/>
</svg>
