<svg width="1117" height="529" viewBox="0 0 1117 529" fill="none" xmlns="http://www.w3.org/2000/svg">
<path d="M562.647 508.92C860.095 504.422 1099.16 391.23 1096.61 256.1C1094.06 120.97 850.861 15.072 553.413 19.5703C255.965 24.0686 16.9025 137.26 19.4523 272.39C22.0022 407.52 265.199 513.418 562.647 508.92Z" fill="#252525"/>
<path d="M553.12 0.140335C703.964 -2.14086 841.986 23.5188 943.356 67.6596C1042.95 111.029 1114.53 175.894 1116.03 255.733C1117.54 335.639 1048.37 402.689 950.443 449.057C850.772 496.249 713.784 526.066 562.942 528.347C412.098 530.628 274.076 504.972 172.706 460.831C73.1079 417.462 1.53125 352.596 0.024175 272.757C-1.48363 192.851 67.69 125.798 165.619 79.4305C265.29 32.2382 402.278 2.42152 553.12 0.140335ZM1096.61 256.1C1094.06 120.97 850.862 15.0725 553.414 19.5707L546.453 19.6941C252.245 25.8369 16.9214 138.316 19.4514 272.39C21.9821 406.464 261.414 511.761 555.684 509.005L562.648 508.92C857.772 504.456 1095.42 392.992 1096.62 259.263L1096.61 256.1Z" fill="#7DECFC"/>
<path fill-rule="evenodd" clip-rule="evenodd" d="M305.003 332.256C309.503 331.926 314.274 329.832 317.027 326.152C319.091 323.392 319.896 319.695 319.376 316.309C318.959 313.587 318.011 311.043 316.226 308.918C315.247 307.754 313.721 306.192 313.719 304.584L313.617 239.173C313.612 235.848 312.777 232.385 311.031 229.547C310.182 228.17 309.147 226.922 307.924 225.861C305.8 224.015 303.137 222.753 300.386 222.18C296.673 221.406 292.459 221.728 289.004 223.307C287.34 224.068 285.755 224.912 284.352 226.108C282.393 227.779 280.795 229.962 279.853 232.364C278.994 234.556 278.657 237.065 278.657 239.413L278.644 290.873L278.385 294.195C278.149 297.217 276.847 300.28 274.677 302.42C272.464 304.601 269.279 305.861 266.195 306.052C264.531 306.155 262.913 306.035 261.275 305.735C258.766 305.276 256.136 303.987 254.431 302.048C252.32 299.65 251.317 295.869 251.3 292.764L251.066 247.7C251.681 244.129 252.616 240.486 252.376 236.838C252.283 235.429 252.042 234.041 251.602 232.696C251.18 231.402 250.605 230.166 249.863 229.023C247.705 225.704 244.189 223.091 240.44 221.892C236.412 220.603 231.609 220.508 227.581 221.878C222.691 223.54 218.059 227.878 216.311 232.759C214.866 236.797 215.285 241.513 216.78 245.467L218.614 250.317L218.78 289.784C218.796 293.556 219.141 297.319 219.811 301.03L220.392 304.246C221.583 310.844 224.812 317.374 229.533 322.194C232.105 324.819 235.361 327.122 238.754 328.596L240.122 329.19C243.795 330.786 247.777 331.64 251.781 331.69L255.616 331.738C260.493 331.798 265.367 330.814 269.838 328.866L272.67 327.631C275.88 326.232 278.785 324.122 281.745 322.277C283.745 321.03 286.9 326.023 288.197 327.11L289.097 327.865C291.343 329.747 294.046 331.06 296.914 331.662L297.935 331.877C300.274 332.368 302.628 332.43 305.003 332.256ZM1000.4 331.43L1007.57 330.442L1014.76 328.473L1017.46 327.338C1018.71 326.814 1019.9 326.158 1021.01 325.382L1021.86 324.785C1023 323.987 1024 323.008 1024.82 321.886C1025.58 320.841 1026.18 319.685 1026.6 318.459L1026.72 318.101C1027.25 316.532 1027.51 314.884 1027.49 313.228C1027.46 311.423 1027.09 309.64 1026.41 307.968L1025.99 306.937C1025.54 305.83 1024.9 304.811 1024.1 303.925C1023.53 303.299 1022.89 302.748 1022.19 302.276C1021.17 301.587 1020.04 301.08 1018.84 300.777L1017.94 300.549C1016.27 300.125 1014.54 300.02 1012.83 300.24C1011.51 300.409 1010.22 300.77 1009 301.311L1006.66 302.354C1005.05 303.071 1003.38 303.643 1001.67 304.085C999.935 304.534 998.162 304.84 996.373 304.998L993.526 305.25C991.553 305.425 989.566 305.392 987.599 305.152L986.419 305.009C984.393 304.762 982.414 304.213 980.55 303.38L979.979 303.125C978.321 302.384 976.795 301.378 975.461 300.144C974.195 298.973 973.118 297.611 972.269 296.109L971.371 294.519C970.985 293.835 970.673 293.111 970.442 292.36L970.135 291.362C970.036 291.038 969.983 290.701 969.977 290.362L969.965 289.527C969.953 288.743 970.367 288.014 971.046 287.621C971.4 287.417 971.804 287.317 972.213 287.333L986.633 287.897L993.194 287.507C997.097 287.275 1000.97 286.679 1004.76 285.729L1007.16 285.129C1008.73 284.733 1010.28 284.215 1011.78 283.579C1013.33 282.922 1014.82 282.141 1016.25 281.244L1017.38 280.531L1020.01 278.329C1021.31 277.248 1022.5 276.051 1023.57 274.752C1024.37 273.78 1025.11 272.763 1025.77 271.685C1026.47 270.527 1027.07 269.308 1027.57 268.049C1028.28 266.264 1028.78 264.401 1029.05 262.5L1029.48 259.509C1029.85 256.878 1029.92 254.214 1029.69 251.567L1029.61 250.629C1029.51 249.55 1029.34 248.48 1029.09 247.427C1028.82 246.303 1028.46 245.201 1028.01 244.133L1027.37 242.586C1026.44 240.336 1025.22 238.212 1023.76 236.265C1022.28 234.303 1020.56 232.536 1018.63 231.009L1018.23 230.688C1016.36 229.204 1014.33 227.928 1012.19 226.881L1011.75 226.67C1009.84 225.734 1007.84 224.964 1005.8 224.368L1005.27 224.216C1002.88 223.52 1000.43 223.03 997.958 222.75L995.98 222.527C992.371 222.119 988.735 222.006 985.107 222.187L979.437 222.47L977.338 222.854C973.947 223.474 970.617 224.388 967.385 225.586C964.522 226.647 961.745 227.928 959.08 229.417L958.505 229.738L957.058 230.792C954.973 232.311 953.015 233.995 951.201 235.829C949.414 237.635 947.773 239.581 946.295 241.647L945.239 243.122L944.379 244.725C942.848 247.576 941.546 250.544 940.485 253.601C939.278 257.074 938.387 260.648 937.821 264.28L937.641 265.436C937.038 269.305 936.742 273.217 936.756 277.133L936.758 277.786C936.774 282.142 937.16 286.489 937.914 290.779L938.388 293.476C938.925 296.531 939.755 299.526 940.866 302.422L940.963 302.676C941.958 305.268 943.19 307.763 944.641 310.13L944.944 310.625C946.492 313.148 948.315 315.493 950.379 317.616C952.303 319.594 954.425 321.368 956.712 322.91L957.196 323.236C959.806 324.996 962.591 326.481 965.505 327.669C967.761 328.588 970.078 329.348 972.447 329.918L973.169 330.092C976.035 330.782 978.951 331.249 981.89 331.49L987.941 331.986L1000.4 331.43ZM911.235 331.91C913.728 332.026 916.226 331.964 918.71 331.726L922.525 331.36C924.266 331.193 925.985 330.844 927.654 330.32L929.422 329.764C930.49 329.428 931.505 328.944 932.438 328.326C933.275 327.771 934.029 327.11 934.709 326.372C935.343 325.682 935.882 324.92 936.349 324.109C936.801 323.323 937.152 322.484 937.395 321.611C937.635 320.746 937.766 319.856 937.785 318.959L937.811 317.777C937.831 316.852 937.734 315.929 937.523 315.028C937.227 313.762 936.709 312.558 935.993 311.473L935.315 310.444C934.645 309.428 933.796 308.542 932.81 307.83L932.377 307.517C931.918 307.185 931.416 306.918 930.885 306.724C930.118 306.442 929.303 306.316 928.487 306.352C926.135 306.454 923.634 306.837 921.303 306.362L920.479 306.194C919.673 306.029 918.909 305.703 918.233 305.234L917.948 305.037C917.542 304.754 917.189 304.402 916.907 303.996C916.589 303.538 916.366 303.02 916.252 302.474L915.886 300.717C915.701 299.826 915.609 298.918 915.614 298.008L915.871 247.835C915.879 246.205 920.869 246.751 921.905 246.69C923.188 246.614 924.457 246.385 925.685 246.008L926.306 245.818C927.272 245.522 928.193 245.098 929.045 244.557C929.865 244.038 930.613 243.416 931.274 242.706L931.526 242.435C932.331 241.569 933.004 240.594 933.548 239.546C934.117 238.447 934.517 237.269 934.734 236.051L934.784 235.77C934.92 235.005 934.965 234.226 934.919 233.449C934.861 232.489 934.663 231.542 934.332 230.639L934.16 230.17C933.495 228.36 932.444 226.716 931.079 225.354L930.726 225.002C929.633 223.911 928.326 223.058 926.886 222.499C925.733 222.051 924.513 221.799 923.277 221.751L917.732 221.539C917.451 221.528 917.187 221.408 916.994 221.205C916.797 220.997 916.691 220.72 916.699 220.435L917.167 203.891C917.204 202.576 917.078 201.262 916.792 199.978C916.402 198.227 915.718 196.554 914.77 195.031L914.518 194.625C913.757 193.401 912.818 192.297 911.733 191.349L911.605 191.237C910.607 190.364 909.485 189.644 908.276 189.1C907.314 188.668 906.305 188.35 905.269 188.153L903.94 187.9C902.382 187.604 900.796 187.482 899.211 187.536L898.891 187.547C897.645 187.59 896.406 187.76 895.194 188.055C893.797 188.395 892.445 188.898 891.167 189.555L890.736 189.776C889.674 190.321 888.685 190.993 887.777 191.767C886.962 192.461 886.226 193.244 885.582 194.1C884.921 194.979 884.362 195.929 883.915 196.933L883.828 197.129C883.375 198.146 883.031 199.208 882.788 200.295C882.549 201.37 882.417 202.465 882.392 203.566L882.016 220.05C882.005 220.552 881.691 220.998 881.221 221.178L878.402 222.257C876.87 222.844 875.455 223.703 874.228 224.792L873.995 224.999C872.682 226.165 871.636 227.6 870.929 229.207C870.297 230.645 869.957 232.19 869.902 233.758C869.85 235.193 870.045 236.626 870.477 237.995L870.709 238.729C871.08 239.903 871.658 241.002 872.415 241.974C873.112 242.868 873.951 243.642 874.899 244.263L875.484 244.647C876.315 245.192 877.227 245.601 878.187 245.859C879.218 246.136 880.956 246.216 881.651 247.148C881.859 247.426 881.972 247.764 881.972 248.111L882.011 305.918L882.7 311.09C882.938 312.87 883.361 314.621 883.964 316.313L884.225 317.046C884.688 318.345 885.293 319.589 886.03 320.755C886.649 321.734 887.349 322.655 888.143 323.498C889.256 324.681 890.528 325.703 891.923 326.535L893.101 327.239C895.265 328.531 897.597 329.517 900.03 330.171L901.503 330.567C904.173 331.284 906.913 331.71 909.675 331.838L911.235 331.91ZM414.242 332.159C415.944 332.109 417.635 331.863 419.281 331.426L420.455 331.115C421.988 330.708 423.445 330.056 424.77 329.184L424.93 329.079C426.508 328.041 427.856 326.689 428.89 325.108L429.04 324.879C429.885 323.588 430.48 322.151 430.795 320.641C431.111 319.125 431.139 317.563 430.878 316.037L430.803 315.599C430.449 313.53 429.656 311.561 428.477 309.825L427.414 308.259C426.656 307.142 426.083 305.91 425.72 304.61L425.667 259.475L425.245 254.704C425.025 252.219 424.615 249.755 424.017 247.333L423.467 245.108C422.714 242.055 421.525 239.127 419.937 236.413L419.352 235.412C418.281 233.582 416.974 231.902 415.463 230.415C414.232 229.204 412.875 228.129 411.414 227.209L410.415 226.58C408.194 225.18 405.803 224.072 403.3 223.282C401.821 222.816 400.312 222.473 398.782 222.224C396.897 221.918 394.99 221.773 393.081 221.791L390.172 221.818C387.488 221.843 384.811 222.103 382.172 222.596L381.642 222.695C379.41 223.111 377.218 223.719 375.09 224.51L373.007 225.286C372.169 225.597 371.36 225.984 370.591 226.44L364.697 229.938C364.185 230.241 363.573 230.33 362.997 230.183C361.925 229.912 361.228 228.573 360.579 227.779C360.176 227.285 359.721 226.837 359.221 226.441L357.813 225.326C357.074 224.741 356.278 224.232 355.437 223.807C354.539 223.353 353.594 222.998 352.619 222.748L351.607 222.487C350.21 222.128 348.782 221.898 347.343 221.799L346.844 221.765C345.568 221.677 344.288 221.691 343.014 221.805L342.288 221.871C340.999 221.987 339.727 222.244 338.494 222.639C337.119 223.079 335.803 223.686 334.576 224.447L333.84 224.903C332.949 225.456 332.125 226.109 331.385 226.852C330.516 227.723 329.793 228.709 329.172 229.768C328.558 230.817 328.07 231.935 327.719 233.099L327.398 234.162C327.175 234.9 327.037 235.66 326.985 236.429C326.92 237.397 326.992 238.37 327.201 239.317L327.496 240.657C327.949 242.719 328.776 244.68 329.935 246.444L330.594 247.446C330.99 248.049 331.305 248.702 331.531 249.387C331.735 250.003 331.838 250.648 331.839 251.297L331.87 315.051C331.871 316.373 331.999 317.692 332.254 318.989L332.453 320.004C332.748 321.506 333.284 322.95 334.041 324.281C334.753 325.533 335.652 326.67 336.707 327.651L336.987 327.911C337.916 328.775 338.954 329.513 340.074 330.107C341.125 330.664 342.241 331.09 343.396 331.374L343.752 331.462C344.968 331.762 346.213 331.931 347.466 331.965L347.892 331.976C349.4 332.017 350.908 331.899 352.391 331.624L353.112 331.49C354.23 331.282 355.315 330.945 356.362 330.503C357.456 330.041 358.49 329.446 359.439 328.73C360.549 327.894 361.52 326.899 362.355 325.79C363.131 324.757 363.77 323.627 364.254 322.43C364.647 321.455 364.936 320.441 365.116 319.405L365.228 318.76C365.426 317.614 365.529 316.454 365.536 315.292L365.846 259.383C365.855 257.798 366.176 256.231 366.792 254.771C367.471 253.16 368.492 251.716 369.785 250.539L370 250.343C370.969 249.461 372.09 248.762 373.308 248.279C374.44 247.831 375.639 247.577 376.854 247.527L378.557 247.456C379.681 247.41 380.807 247.509 381.906 247.751L382.339 247.846C383.554 248.113 384.712 248.593 385.761 249.262C386.853 249.959 387.808 250.851 388.579 251.894L388.751 252.127C389.618 253.3 390.267 254.621 390.667 256.024L390.808 256.52C391.181 257.834 391.374 259.193 391.38 260.559L391.604 313.477C391.61 314.974 391.782 316.467 392.118 317.927L392.287 318.662C392.834 321.04 393.892 323.27 395.388 325.198L395.56 325.42C396.683 326.868 398.057 328.101 399.618 329.062C401.087 329.967 402.698 330.616 404.384 330.981L407.094 331.569C409.251 332.037 411.456 332.241 413.661 332.176L414.242 332.159ZM131.688 332.167C134.071 331.224 136.213 330.025 137.902 328.048L140.184 325.379C143.122 327.033 146.013 328.79 149.174 329.995C153.059 331.476 157.319 332.303 161.47 332.474C164.866 332.614 168.216 332.169 171.582 331.796C178.369 330.057 184.76 327.286 189.999 322.553C196.888 316.33 201.485 306.986 204.04 298.723C208.409 284.595 207.647 267.565 203.844 253.588C201.756 245.915 196.923 238.023 191.86 232.034L190.368 230.693C186.984 227.654 183.152 225.344 179.028 223.465C171.192 219.896 161.601 219.762 153.266 221.345L147.379 223.216L142.538 225.46C142.44 218.546 141.299 210.892 143.069 204.108C144.428 198.898 145.317 193.577 143.906 188.265C142.569 183.235 139.232 178.117 134.377 175.943C132.028 174.891 129.639 174.059 127.068 173.742C123.941 173.356 120.512 173.608 117.486 174.546C112.416 176.118 107.76 179.769 105.308 184.501C101.973 190.935 102.473 199.24 106.001 205.45C107.281 207.704 108.436 209.828 108.441 212.502L108.626 319.038C108.632 322.263 109.923 325.409 112.128 327.755C113.715 329.443 115.537 330.832 117.677 331.75C122.001 333.605 127.279 333.912 131.688 332.167ZM145.499 301.256C143.349 298.781 142.298 295.181 142.294 291.934L142.257 260.129C142.681 257.014 143.326 254.308 145.503 251.905C147.316 249.903 149.878 248.536 152.51 247.971C157.385 246.924 162.792 248.289 166.452 251.709C171.44 256.371 172.339 264.227 172.884 270.595C173.709 280.246 174.274 297.459 164.286 303.477C158.743 306.817 149.855 306.269 145.499 301.256ZM989.566 266.602C987.62 267.129 985.61 267.392 983.593 267.382L972.072 267.327C971.744 267.325 971.418 267.26 971.114 267.136L970.719 266.974C970.435 266.858 970.198 266.648 970.049 266.379C969.918 266.143 969.861 265.872 969.885 265.603L970.056 263.702C970.113 263.067 970.25 262.442 970.464 261.841L972.177 257.036C972.528 256.049 973.003 255.111 973.589 254.242C974.176 253.373 974.869 252.582 975.654 251.886L975.827 251.732C976.919 250.764 978.153 249.968 979.486 249.373L980.995 248.699C982.562 247.999 984.235 247.566 985.945 247.418C986.838 247.34 987.736 247.341 988.629 247.42L989.702 247.515C990.741 247.607 991.751 247.861 992.72 248.245C993.995 248.749 995.151 249.511 996.116 250.484L996.315 250.684C997.353 251.731 998.112 253.021 998.523 254.437C998.861 255.603 998.954 256.825 998.798 258.029L998.784 258.136C998.613 259.449 998.165 260.712 997.468 261.839L997.359 262.015C996.794 262.93 996.066 263.735 995.211 264.389C994.298 265.088 993.258 265.602 992.148 265.902L989.566 266.602Z" fill="#7DECFC"/>
<path fill-rule="evenodd" clip-rule="evenodd" d="M633.714 363.23L633.34 363.682C631.651 365.727 629.82 367.649 627.859 369.434C617.538 378.829 592.661 388.613 565.135 376.725L558.53 373.861C556.998 373.196 555.601 372.257 554.407 371.09L554.122 370.811C553.147 369.858 552.35 368.738 551.768 367.504C551.127 366.144 550.759 364.672 550.686 363.17L550.658 362.605C550.581 361.023 550.795 359.44 551.289 357.935L551.394 357.617C551.825 356.305 552.495 355.085 553.371 354.019C554.382 352.789 555.644 351.789 557.072 351.088L557.439 350.908C559.215 350.035 561.166 349.578 563.144 349.572L563.225 349.571C565.072 349.565 566.899 349.941 568.593 350.675L572.427 352.336C574.693 353.318 577.061 354.046 579.488 354.505L581.178 354.825C583.714 355.305 586.297 355.488 588.875 355.371L589.958 355.322C592.307 355.216 594.63 354.784 596.861 354.041L597.265 353.906C599.038 353.315 600.729 352.502 602.297 351.486C604.08 350.332 605.687 348.926 607.069 347.314L607.449 346.87C609.042 345.012 610.349 342.927 611.326 340.684C612.085 338.942 612.64 337.118 612.979 335.249L613.291 333.531C613.716 331.195 613.576 328.779 613.592 326.415C613.593 326.272 613.557 326.13 613.488 326.005C612.622 324.43 605.904 328.387 604.671 328.907C604.201 329.106 603.716 329.269 603.222 329.394L599.386 330.37L597.755 330.549C595.357 330.813 592.942 330.89 590.532 330.778L589.887 330.749C587.069 330.619 584.273 330.193 581.544 329.479L580.573 329.226C578.295 328.63 576.091 327.78 574.003 326.691C572.177 325.74 570.45 324.612 568.845 323.323L567.74 322.435C566.165 321.17 564.73 319.739 563.461 318.167C562.503 316.981 561.643 315.718 560.888 314.393L560.422 313.573C559.241 311.497 558.254 309.315 557.458 307.063C556.573 304.561 555.934 301.98 555.548 299.355L555.238 297.247C554.807 294.31 554.584 291.346 554.572 288.377L554.414 250.971L551.572 244.42C551.01 243.125 550.632 241.757 550.45 240.356C550.238 238.722 550.294 237.064 550.617 235.448L550.808 234.495C551.138 232.844 551.739 231.259 552.587 229.804C553.505 228.229 554.698 226.831 556.11 225.677L556.253 225.56C557.527 224.518 558.952 223.675 560.479 223.061L560.756 222.949C562.513 222.242 564.37 221.813 566.259 221.677L566.968 221.626C569.376 221.453 571.795 221.675 574.131 222.282L574.512 222.381C576.688 222.947 578.751 223.878 580.615 225.134L581.424 225.68C582.495 226.401 583.454 227.276 584.271 228.276L584.372 228.399C584.908 229.054 585.371 229.765 585.754 230.519C586.253 231.502 586.611 232.551 586.817 233.633L587.061 234.907C587.52 237.312 587.554 239.779 587.16 242.196L586.264 247.7L586.512 292.349C586.521 293.972 586.784 295.583 587.293 297.124L587.501 297.756C587.856 298.83 588.372 299.845 589.031 300.764C589.822 301.867 590.808 302.816 591.939 303.565L592.074 303.654C593.031 304.288 594.08 304.769 595.184 305.083C596.235 305.381 597.324 305.523 598.417 305.504L601.586 305.449C603.157 305.422 604.71 305.098 606.161 304.495L606.277 304.447C607.772 303.825 609.124 302.905 610.25 301.741C611.343 300.612 612.201 299.278 612.774 297.815L612.877 297.551C613.472 296.034 613.782 294.42 613.792 292.791L614.064 250.317L612.53 244.839C612.202 243.665 611.975 242.467 611.839 241.256C611.636 239.454 611.662 237.634 611.917 235.839L611.996 235.289C612.244 233.543 612.751 231.844 613.502 230.248L613.717 229.789C614.468 228.192 615.503 226.753 616.753 225.51C617.815 224.454 619.036 223.572 620.373 222.897C621.637 222.259 622.99 221.813 624.386 221.573L625.291 221.418C626.768 221.166 628.268 221.077 629.765 221.153L630.537 221.192C632.437 221.29 634.314 221.648 636.117 222.259L636.396 222.354C637.882 222.857 639.297 223.548 640.606 224.41L641.026 224.686C642.043 225.356 642.972 226.153 643.79 227.056C644.794 228.166 645.62 229.425 646.238 230.788L646.295 230.916C647.013 232.5 647.456 234.195 647.604 235.927L647.719 237.257C647.867 238.981 647.821 240.716 647.583 242.429L646.575 249.663L646.581 324.234L645.887 332.178C645.626 335.163 645.141 338.125 644.435 341.038C643.769 343.787 642.909 346.485 641.86 349.112L641.4 350.264C640.494 352.532 639.42 354.728 638.186 356.834C636.869 359.082 635.373 361.221 633.714 363.23Z" fill="#7DECFC"/>
<path fill-rule="evenodd" clip-rule="evenodd" d="M850.284 363.23L849.91 363.682C848.221 365.727 846.39 367.649 844.429 369.434C834.108 378.829 809.232 388.613 781.705 376.725L775.101 373.861C773.568 373.196 772.171 372.257 770.977 371.09L770.692 370.811C769.717 369.858 768.92 368.738 768.338 367.504C767.697 366.144 767.329 364.672 767.256 363.17L767.228 362.605C767.151 361.023 767.365 359.44 767.86 357.935L767.964 357.617C768.395 356.305 769.066 355.085 769.942 354.019C770.952 352.789 772.214 351.789 773.642 351.088L774.009 350.908C775.785 350.035 777.736 349.578 779.715 349.572L779.796 349.571C781.642 349.565 783.47 349.941 785.164 350.675L788.997 352.336C791.263 353.318 793.632 354.046 796.059 354.505L797.748 354.825C800.284 355.305 802.867 355.488 805.445 355.371L806.528 355.322C808.877 355.216 811.2 354.784 813.431 354.041L813.836 353.906C815.608 353.315 817.299 352.502 818.867 351.486C820.65 350.332 822.257 348.926 823.639 347.314L824.02 346.87C825.612 345.012 826.919 342.927 827.896 340.684C828.655 338.942 829.21 337.118 829.549 335.249L829.862 333.531C830.286 331.195 830.146 328.779 830.162 326.415C830.163 326.272 830.127 326.13 830.058 326.005C829.193 324.43 822.474 328.387 821.241 328.907C820.771 329.106 820.286 329.269 819.792 329.394L815.956 330.37L814.325 330.549C811.927 330.813 809.512 330.89 807.103 330.778L806.457 330.749C803.64 330.619 800.843 330.193 798.114 329.479L797.143 329.226C794.865 328.63 792.661 327.78 790.573 326.691C788.747 325.74 787.02 324.612 785.415 323.323L784.31 322.435C782.735 321.17 781.301 319.739 780.031 318.167C779.073 316.981 778.213 315.718 777.459 314.393L776.993 313.573C775.811 311.497 774.824 309.315 774.028 307.063C773.143 304.561 772.504 301.98 772.118 299.355L771.809 297.247C771.377 294.31 771.155 291.346 771.142 288.377L770.984 250.971L768.142 244.42C767.58 243.125 767.203 241.757 767.02 240.356C766.808 238.722 766.865 237.064 767.188 235.448L767.378 234.495C767.709 232.844 768.31 231.259 769.158 229.804C770.076 228.229 771.269 226.831 772.68 225.677L772.823 225.56C774.097 224.518 775.522 223.675 777.049 223.061L777.327 222.949C779.084 222.242 780.94 221.813 782.83 221.677L783.539 221.626C785.946 221.453 788.365 221.675 790.701 222.282L791.083 222.381C793.258 222.947 795.322 223.878 797.185 225.134L797.994 225.68C799.065 226.401 800.024 227.276 800.842 228.276L800.943 228.399C801.478 229.054 801.941 229.765 802.324 230.519C802.823 231.502 803.181 232.551 803.388 233.633L803.631 234.907C804.09 237.312 804.124 239.779 803.73 242.196L802.834 247.7L803.082 292.349C803.091 293.972 803.355 295.583 803.863 297.124L804.072 297.756C804.426 298.83 804.942 299.845 805.602 300.764C806.393 301.867 807.378 302.816 808.51 303.565L808.645 303.654C809.601 304.288 810.65 304.769 811.754 305.083C812.805 305.381 813.895 305.523 814.987 305.504L818.156 305.449C819.728 305.422 821.28 305.098 822.732 304.495L822.848 304.447C824.343 303.825 825.695 302.905 826.821 301.741C827.913 300.612 828.771 299.278 829.344 297.815L829.448 297.551C830.042 296.034 830.352 294.42 830.363 292.791L830.635 250.317L829.101 244.839C828.772 243.665 828.546 242.467 828.409 241.256C828.206 239.454 828.232 237.634 828.488 235.839L828.566 235.289C828.814 233.543 829.322 231.844 830.072 230.248L830.288 229.789C831.038 228.193 832.073 226.752 833.323 225.51C834.385 224.454 835.607 223.572 836.943 222.897C838.208 222.259 839.56 221.813 840.957 221.573L841.862 221.418C843.338 221.166 844.839 221.077 846.335 221.153L847.107 221.192C849.007 221.29 850.885 221.648 852.687 222.259L852.967 222.354C854.452 222.857 855.867 223.548 857.177 224.41L857.596 224.686C858.614 225.356 859.543 226.153 860.36 227.056C861.365 228.166 862.19 229.425 862.808 230.788L862.866 230.916C863.583 232.5 864.026 234.195 864.175 235.927L864.289 237.257C864.437 238.981 864.392 240.716 864.153 242.429L863.145 249.663L863.152 324.234L862.458 332.178C862.197 335.163 861.711 338.125 861.006 341.038C860.34 343.787 859.479 346.485 858.43 349.112L857.97 350.264C857.065 352.532 855.991 354.728 854.756 356.834C853.439 359.082 851.943 361.221 850.284 363.23Z" fill="#7DECFC"/>
<path fill-rule="evenodd" clip-rule="evenodd" d="M531.247 331.426C529.601 331.863 527.91 332.109 526.208 332.159L525.628 332.176C523.422 332.241 521.217 332.037 519.061 331.569L516.351 330.981C514.665 330.616 513.053 329.967 511.584 329.062C510.024 328.102 508.649 326.868 507.526 325.42L507.354 325.198C505.858 323.27 504.8 321.04 504.254 318.662L504.084 317.927C503.749 316.467 503.576 314.974 503.57 313.477L503.346 260.559C503.34 259.193 503.148 257.834 502.774 256.52L502.633 256.024C502.233 254.621 501.585 253.3 500.717 252.127L500.545 251.894C499.775 250.851 498.82 249.959 497.727 249.262C496.678 248.593 495.52 248.113 494.305 247.846L493.872 247.751C492.773 247.509 491.648 247.41 490.523 247.456L488.821 247.527C487.605 247.577 486.406 247.831 485.275 248.279C484.056 248.762 482.935 249.461 481.966 250.343L481.751 250.539C480.458 251.716 479.437 253.16 478.758 254.771C478.143 256.231 477.821 257.798 477.813 259.383L477.502 315.292C477.496 316.454 477.393 317.614 477.194 318.76L477.082 319.405C476.903 320.441 476.614 321.455 476.22 322.43C475.736 323.627 475.097 324.757 474.321 325.79C473.487 326.899 472.515 327.894 471.405 328.73C470.456 329.446 469.423 330.041 468.328 330.503C467.281 330.945 466.196 331.282 465.078 331.49L464.358 331.624C462.874 331.899 461.366 332.017 459.859 331.976L459.432 331.965C458.179 331.931 456.934 331.762 455.718 331.462L455.362 331.374C454.207 331.09 453.092 330.664 452.041 330.107C450.92 329.513 449.882 328.775 448.953 327.911L448.674 327.651C447.619 326.67 446.719 325.533 446.007 324.281C445.25 322.95 444.714 321.506 444.419 320.004L444.22 318.989C443.965 317.692 443.837 316.373 443.836 315.051L443.805 251.297C443.805 250.648 443.701 250.003 443.497 249.387C443.271 248.702 442.956 248.049 442.56 247.446L441.901 246.444C440.742 244.68 439.915 242.719 439.462 240.657L439.167 239.317C438.959 238.37 438.886 237.397 438.951 236.429C439.003 235.66 439.142 234.9 439.364 234.162L439.685 233.099C440.036 231.935 440.524 230.817 441.138 229.768C441.759 228.709 442.482 227.723 443.351 226.852C444.091 226.109 444.915 225.456 445.806 224.903L446.543 224.447C447.77 223.686 449.085 223.079 450.46 222.639C451.693 222.244 452.965 221.987 454.254 221.871L454.98 221.805C456.254 221.691 457.535 221.677 458.811 221.765L459.309 221.799C460.748 221.898 462.176 222.128 463.573 222.487L464.585 222.748C465.56 222.998 466.505 223.353 467.403 223.807C468.244 224.232 469.04 224.741 469.779 225.326L471.187 226.441C471.687 226.837 472.142 227.285 472.545 227.779C473.194 228.573 473.891 229.912 474.963 230.183C475.54 230.33 476.151 230.241 476.663 229.938L482.557 226.44C483.326 225.984 484.135 225.597 484.973 225.286L487.057 224.51C489.185 223.719 491.377 223.111 493.609 222.695L494.138 222.596C496.777 222.103 499.454 221.843 502.138 221.818L505.047 221.791C506.956 221.773 508.864 221.918 510.748 222.224C512.278 222.473 513.788 222.816 515.266 223.282C517.769 224.072 520.161 225.18 522.381 226.58L523.38 227.209C524.841 228.129 526.198 229.204 527.429 230.415C528.94 231.902 530.248 233.582 531.318 235.412L531.903 236.413C533.491 239.127 534.68 242.055 535.434 245.108L535.983 247.333C536.581 249.755 536.992 252.219 537.211 254.704L537.633 259.475L537.686 304.61C538.05 305.91 538.622 307.142 539.38 308.259L540.443 309.825C541.622 311.561 542.415 313.53 542.769 315.599L542.844 316.037C543.105 317.563 543.077 319.125 542.761 320.641C542.446 322.151 541.851 323.588 541.006 324.879L540.856 325.108C539.822 326.689 538.474 328.041 536.896 329.079L536.736 329.184C535.411 330.056 533.954 330.708 532.421 331.115L531.247 331.426Z" fill="#7DECFC"/>
<path fill-rule="evenodd" clip-rule="evenodd" d="M690.371 328.048C688.682 330.025 686.54 331.224 684.157 332.167C679.748 333.912 674.47 333.605 670.146 331.75C668.006 330.832 666.184 329.443 664.597 327.755C662.391 325.409 661.1 322.263 661.095 319.038L660.91 212.502C660.905 209.828 659.75 207.704 658.47 205.45C654.942 199.24 654.442 190.935 657.777 184.501C660.229 179.769 664.885 176.118 669.955 174.546C672.981 173.608 676.41 173.356 679.537 173.742C682.108 174.059 684.497 174.891 686.846 175.943C691.701 178.117 695.038 183.235 696.374 188.265C697.786 193.577 696.897 198.898 695.538 204.108C693.768 210.892 694.909 218.546 695.007 225.46L699.848 223.216L705.735 221.345C714.069 219.762 723.661 219.896 731.497 223.465C735.621 225.344 739.453 227.654 742.837 230.693L744.329 232.034C749.392 238.023 754.225 245.915 756.313 253.588C760.116 267.565 760.877 284.595 756.509 298.723C753.954 306.986 749.357 316.33 742.468 322.553C737.229 327.286 730.838 330.057 724.051 331.796C720.685 332.169 717.335 332.614 713.939 332.474C709.788 332.303 705.528 331.476 701.643 329.995C698.482 328.79 695.591 327.033 692.653 325.379L690.371 328.048ZM697.968 301.256C695.818 298.781 694.767 295.181 694.763 291.934L694.726 260.129C695.15 257.014 695.794 254.308 697.972 251.905C699.785 249.903 702.347 248.536 704.979 247.971C709.854 246.924 715.261 248.289 718.921 251.709C723.909 256.371 724.808 264.228 725.353 270.595C726.178 280.246 726.743 297.459 716.755 303.477C711.212 306.817 702.324 306.269 697.968 301.256Z" fill="#7DECFC"/>
</svg>
