<svg width="1210" height="260" viewBox="0 0 1210 260" fill="none" xmlns="http://www.w3.org/2000/svg">
<g filter="url(#filter0_d_2026_24)">
<path d="M5 5H1204.87V254.627H5V5Z" fill="#F51F68"/>
</g>
<path fill-rule="evenodd" clip-rule="evenodd" d="M1129.66 91.132C1145.6 91.132 1158.52 78.1546 1158.52 62.1461C1158.52 46.1375 1145.6 33.1601 1129.66 33.1601C1113.72 33.1601 1100.8 46.1375 1100.8 62.1461C1100.8 78.1546 1113.72 91.132 1129.66 91.132ZM1129.66 95.5915C1148.05 95.5915 1162.96 80.6174 1162.96 62.1461C1162.96 43.6747 1148.05 28.7007 1129.66 28.7007C1111.27 28.7007 1096.36 43.6747 1096.36 62.1461C1096.36 80.6174 1111.27 95.5915 1129.66 95.5915Z" fill="black"/>
<path d="M1145.39 56.8771C1145.39 59.1593 1144.83 61.0873 1143.7 62.6612C1142.61 64.2351 1140.71 65.3762 1138.02 66.0844C1138.34 66.5041 1138.56 66.8321 1138.69 67.0681L1145.04 75.9213H1134.38C1133.23 73.7703 1131.41 70.7275 1128.93 66.7927H1123.17V75.9213H1113.93C1114.14 70.8324 1114.24 66.0713 1114.24 61.6381C1114.24 57.205 1114.14 52.444 1113.93 47.355H1123.17V47.3944H1131.21C1136.48 47.3944 1140.17 48.2469 1142.25 49.952C1144.34 51.657 1145.39 53.9654 1145.39 56.8771ZM1123.17 54.9491V59.4347H1128.46C1130.68 59.4347 1132.36 59.3691 1133.48 59.238C1134.63 59.0806 1135.42 58.8445 1135.87 58.5297C1136.31 58.2149 1136.53 57.7559 1136.53 57.1526C1136.53 56.5755 1136.33 56.1295 1135.91 55.8147C1135.49 55.5 1134.71 55.277 1133.56 55.1459C1132.41 55.0147 1130.71 54.9491 1128.46 54.9491H1123.17Z" fill="black"/>
<path d="M604.149 71.5231L646.315 71.4939L619.48 152.375L636.366 152.423L662.375 71.4939H705.036L659.422 211.764L636.608 228.968L555.54 228.907L565.592 197.528L621.759 197.488L626.424 182.56H584.996L573.16 167.09L604.149 71.5231Z" fill="#151516"/>
<path fill-rule="evenodd" clip-rule="evenodd" d="M143.173 30.8252L184.5 30.9702L172.111 71.5376L217.652 71.5301L228.67 87.024L201.336 167.071L180.67 182.698H93.1997L143.173 30.8252ZM163.259 101.054L145.915 152.415L163.552 152.398L180.651 101.048L163.259 101.054Z" fill="#151516"/>
<path d="M366.949 71.5828L454.862 71.4992L465.896 87.0053L434.206 182.676L391.155 182.618L417.934 101.07L400.305 101.003C391.251 127.189 373.205 182.618 373.205 182.618L330.538 182.652L366.949 71.5828Z" fill="#151516"/>
<path d="M308.64 71.4992H351.846L315.143 182.652H228.67L216.285 167.071L248.617 71.5301L291.603 71.4992L264.17 152.384L281.674 152.412L308.64 71.4992Z" fill="#151516"/>
<path d="M485.96 71.5828L573.873 71.4992L584.906 87.0053L553.217 182.676L510.165 182.618L536.944 101.07L519.315 101.003C510.261 127.189 492.216 182.618 492.216 182.618L449.548 182.652L485.96 71.5828Z" fill="#151516"/>
<path d="M836.103 71.5231L878.27 71.4939L851.435 152.375L868.321 152.423L894.33 71.4939H936.991L891.377 211.764L868.562 228.968L787.494 228.907L797.547 197.528L853.714 197.488L858.379 182.56H816.951L805.114 167.09L836.103 71.5231Z" fill="#151516"/>
<path fill-rule="evenodd" clip-rule="evenodd" d="M732.492 30.6602L773.82 30.8052L761.43 71.3726L806.971 71.3651L817.99 86.8589L791.048 167.09L769.989 182.533H682.519L732.492 30.6602ZM752.578 100.889L735.234 152.25L752.871 152.233L769.97 100.883L752.578 100.889Z" fill="#151516"/>
<path fill-rule="evenodd" clip-rule="evenodd" d="M1116.67 71.4355H1038.39L1014.95 86.8593L985.131 182.567H1081.32L1090.96 152.648L1051.02 152.539L1101.35 116.854L1116.67 71.4355ZM1066.37 100.985L1051.02 100.978L1043.08 125.538L1062.95 112.78L1066.37 100.985Z" fill="#151516"/>
<path fill-rule="evenodd" clip-rule="evenodd" d="M1002.85 37.2121L958.683 49.5324L920.679 167.215L932.468 182.63H971.95L981.696 152.5L966.426 152.404L982.907 100.883L998.369 100.978L1007.92 71.6607L992.244 71.4355L1002.85 37.2121Z" fill="#151516"/>
<defs>
<filter id="filter0_d_2026_24" x="0" y="0" width="1209.87" height="259.627" filterUnits="userSpaceOnUse" color-interpolation-filters="sRGB">
<feFlood flood-opacity="0" result="BackgroundImageFix"/>
<feColorMatrix in="SourceAlpha" type="matrix" values="0 0 0 0 0 0 0 0 0 0 0 0 0 0 0 0 0 0 127 0" result="hardAlpha"/>
<feOffset/>
<feGaussianBlur stdDeviation="2.5"/>
<feComposite in2="hardAlpha" operator="out"/>
<feColorMatrix type="matrix" values="0 0 0 0 0.168627 0 0 0 0 0.180392 0 0 0 0 0.290196 0 0 0 0.15 0"/>
<feBlend mode="normal" in2="BackgroundImageFix" result="effect1_dropShadow_2026_24"/>
<feBlend mode="normal" in="SourceGraphic" in2="effect1_dropShadow_2026_24" result="shape"/>
</filter>
</defs>
</svg>
