<svg width="1117" height="277" viewBox="0 0 1117 277" fill="none" xmlns="http://www.w3.org/2000/svg">
<path d="M684.675 0.537912C690.808 -0.322502 697.152 0.00158541 701.609 0.49527L703.384 0.719143C705.431 1.00325 708.217 1.50085 711.14 2.4515C714.449 3.52824 720.539 5.99629 725.35 11.8062L726.299 13.0162C729.64 17.5464 730.427 22.2579 730.606 23.2451C730.946 25.1216 731.073 26.8797 731.134 28.1756C731.257 30.8336 731.183 33.785 731.048 36.5495C730.82 41.2432 730.336 46.8178 729.774 52.4019C734.13 52.1897 738.471 52.3709 742.706 52.9562C754.479 54.5837 766.705 59.5096 776.276 68.6114C780.032 62.5348 785.474 59.4148 788.045 58.1053C791.405 56.395 795.227 55.1282 798.967 54.582C803.231 53.9596 809.326 53.5001 815.438 53.7345C818.519 53.8527 822.071 54.1634 825.635 54.8911C828.928 55.5637 833.742 56.8849 838.332 59.8697C841.935 62.2118 844.609 65.2051 846.46 68.057C847.237 69.2523 848.026 70.6926 848.731 72.3426C849.766 69.8416 851.302 66.8693 853.56 64.2458C859.824 56.9673 867.911 55.0434 871.902 54.3848C874.128 54.0174 876.145 53.8843 877.515 53.8144C880.396 53.6674 878.537 53.7955 880.388 53.6918L881.582 53.6545C887.886 53.6462 894.7 53.8674 900.648 55.3655C902.309 55.7838 904.093 56.3565 905.909 57.1299C906.524 52.6883 907.457 47.3719 909.065 42.6687L909.694 40.995C913.059 32.8638 919.432 28.3201 924.603 26.0648C929.642 23.8671 934.537 23.3315 937.353 23.1331C945.439 22.5636 953.84 22.5568 961.276 24.6629C970.112 27.166 978.447 33.0014 982.41 43.319C984.135 47.8092 984.629 52.3445 984.665 56.2344C989.713 57.6071 994.412 60.5551 997.905 65.12C1002.81 61.6008 1007.93 58.8086 1013.38 56.6821C1024.27 52.4416 1035.05 51.4459 1044.6 50.8721C1045.04 50.8459 1045.48 50.8348 1045.92 50.8348C1054.19 50.835 1064.2 52.0392 1073.88 55.099C1083.13 58.0218 1094.13 63.3016 1102.25 72.8969C1113.68 85.9398 1117.16 103.113 1115.77 117.986C1114.51 131.453 1109.01 145.939 1098.1 156.535C1098.33 156.867 1098.57 157.205 1098.8 157.558C1100.97 160.778 1104.14 165.704 1106.4 170.362C1109.7 177.18 1110.55 184.834 1108.33 192.232C1106.29 199.053 1102.2 203.793 1098.93 206.72C1084.76 219.382 1064.08 225.945 1044.23 226.645C1024.6 227.337 1002.47 222.419 984.681 208.116C983.539 209.711 982.204 211.313 980.63 212.807C973.352 219.714 964.152 223.119 956.062 224.544C947.751 226.009 938.795 225.729 930.354 223.622C923.031 221.795 915.011 218.126 908.335 212.322C904.255 226.323 896.863 241.579 886.107 253.339L886.102 253.333C871.492 269.314 849.489 275.276 830.768 276.121C811.815 276.975 790.775 272.889 775.125 262.635C767.112 257.385 764.051 249.413 762.817 244.928C761.426 239.868 761.108 234.738 761.255 230.386C761.406 225.941 762.075 221.296 763.297 216.959C764.369 213.152 766.498 207.272 770.978 202.317L771.82 201.421C772.119 201.12 772.422 200.831 772.726 200.553C772.627 200.403 772.525 200.255 772.428 200.105C767.824 205.312 762.595 209.996 756.725 213.937C756.263 214.247 755.79 214.538 755.307 214.811C742.477 222.071 728.559 225.717 714.21 224.406C706.99 223.746 700.122 221.871 693.651 219.001C687.509 222.331 680.769 223.042 676.072 223.196L672.106 223.244C669.626 223.265 665.128 223.254 660.374 222.407C659.309 222.217 657.993 221.944 656.52 221.538C652.196 232.758 645.836 244.114 637.411 253.328L637.416 253.333C622.806 269.316 600.799 275.276 582.077 276.121C563.124 276.976 542.083 272.889 526.433 262.635C518.421 257.385 515.36 249.413 514.126 244.928C512.734 239.868 512.417 234.738 512.564 230.386C512.634 228.314 512.82 226.198 513.118 224.091C509.965 224.357 506.923 224.403 504.115 224.347C495.925 224.301 487.187 221.87 479.809 217.743C473.729 214.342 466.432 208.528 462.145 199.646C460.685 204.175 457.481 211.868 450.151 217.103L448.398 218.26C444.604 220.557 440.711 221.419 439.272 221.73C437.143 222.19 434.936 222.498 432.881 222.705C428.757 223.121 423.966 223.258 419.299 223.009C414.971 222.778 409.142 222.141 403.735 220.222C403.004 219.962 402.159 219.63 401.235 219.219C392.21 223.879 382.124 224.508 374.002 224.347C365.812 224.302 357.074 221.87 349.696 217.743C343.614 214.341 336.313 208.526 332.026 199.641C330.456 204.515 326.869 213.062 318.285 218.26C314.492 220.556 310.599 221.419 309.159 221.73C307.029 222.19 304.818 222.498 302.763 222.705C298.639 223.121 293.852 223.258 289.186 223.009C284.858 222.779 279.024 222.141 273.617 220.222C272.885 219.962 272.041 219.63 271.117 219.219C264.437 222.708 257.39 224.051 252.066 224.448C242.271 225.179 231.206 223.441 222.291 218.953L220.537 218.02C218.779 217.029 217.121 215.938 215.548 214.774C206.641 220.06 196.312 223.448 183.71 224.267C171.984 225.029 155.372 223.134 142.496 211.426C139.482 208.686 136.972 205.609 134.9 202.349C130.833 206.656 126.304 210.568 121.287 213.937C120.826 214.247 120.352 214.538 119.869 214.811C107.039 222.07 93.1209 225.717 78.7721 224.406C71.553 223.746 64.6836 221.871 58.2131 219.001C49.9905 223.46 40.6904 223.209 36.6679 223.244C34.1878 223.265 29.6857 223.255 24.9306 222.407C20.7154 221.655 12.6064 219.649 6.16786 212.898C3.11196 209.693 1.10178 205.635 0.405784 201.262C-0.0985885 198.092 -0.0129421 194.571 0.0433225 192.696C0.11867 190.185 0.295361 187.239 0.517721 184.135C0.964786 177.896 1.66672 170.286 2.41531 162.777C3.89404 147.943 5.69287 132.149 6.11988 128.066C6.32772 126.061 6.98867 119.23 7.92686 109.687C8.85846 100.21 10.0458 88.2417 11.285 76.2657C12.5221 64.3085 13.8184 52.2548 14.9629 42.6421C15.5335 37.8491 16.0834 33.5441 16.578 30.1105C16.9733 27.3662 17.5638 23.4075 18.4116 20.5586C21.1346 11.4087 28.2167 7.1401 30.5434 5.84158C33.6659 4.09899 36.7713 3.10528 38.8107 2.53678C43.0399 1.35801 47.3181 0.77968 49.2315 0.532582C55.3666 -0.32862 61.7127 0.00140314 66.1712 0.49527C68.157 0.714926 71.8063 1.18409 75.7019 2.4515C79.0112 3.52828 85.1006 5.99585 89.9125 11.8062L90.8559 13.0162L90.8613 13.0215C94.2017 17.5519 94.9895 22.2584 95.1682 23.2451C95.5081 25.1216 95.6357 26.8797 95.6959 28.1756C95.8193 30.8336 95.7449 33.785 95.6106 36.5495C95.3826 41.2432 94.898 46.8178 94.3366 52.4019C98.6921 52.1897 103.033 52.3708 107.268 52.9562C118.819 54.5531 130.806 59.324 140.295 68.0997C141.297 66.6383 142.445 65.2481 143.738 63.942C148.519 59.1146 154.017 56.78 158.21 55.5841C165.361 53.5443 174.074 53.7054 175.48 53.6545C175.737 53.6451 175.996 53.6442 176.253 53.6438C182.293 53.6371 189.379 54.1548 195.895 56.8793C201.787 59.3433 206.703 63.4081 209.967 68.8459C211.348 66.6321 213.206 64.3575 215.74 62.2896C223.598 55.8756 232.85 54.3116 238.463 53.8091C244.551 53.2643 250.412 53.6832 253.889 53.953C257.163 54.2071 263.088 54.9355 269.043 58.084L270.232 58.7503L271.906 59.811C273.538 60.9273 274.99 62.1748 276.271 63.5209C278.249 62.0458 280.512 60.7563 283.089 59.7364L285.599 58.8249C291.598 56.8244 298.425 55.7336 304.101 55.3389C307.491 55.1032 311.27 55.0556 314.937 55.4402C317.352 55.6935 323.269 56.4143 328.828 59.9496C330.217 59.251 331.617 58.6066 333.028 58.0147C342.407 54.0805 351.098 53.0097 358.966 53.0095L359.68 53.0202C376.077 53.5565 390.655 58.3796 400.462 69.4696C403.411 65.4986 407.55 61.9738 413.202 59.7364C419.741 57.1479 427.733 55.7898 434.219 55.3389C437.608 55.1033 441.385 55.0558 445.05 55.4402C447.465 55.6935 453.387 56.4129 458.946 59.9496C460.334 59.2515 461.731 58.6061 463.141 58.0147C472.522 54.0797 481.216 53.0095 489.084 53.0095L489.798 53.0202C505.065 53.5199 518.751 57.7382 528.48 67.2681C532.16 62.0708 536.974 59.3149 539.349 58.1053C542.708 56.3945 546.536 55.1283 550.276 54.582C554.54 53.9596 560.635 53.5 566.747 53.7345C569.828 53.8527 573.38 54.1634 576.944 54.8911C580.237 55.5638 585.051 56.8848 589.64 59.8697C593.244 62.2118 595.917 65.2053 597.769 68.057C598.545 69.2523 599.335 70.6926 600.04 72.3426C601.075 69.8416 602.611 66.8692 604.869 64.2458C611.133 56.9672 619.22 55.0433 623.211 54.3848C625.436 54.0176 627.448 53.8844 628.818 53.8144C631.703 53.6672 629.844 53.7956 631.697 53.6918L632.891 53.6545C638.183 53.6475 643.833 53.8108 649.031 54.7472C649.507 50.4454 649.963 46.3607 650.406 42.6421C650.977 37.8494 651.521 33.544 652.016 30.1105C652.411 27.3662 653.002 23.4075 653.849 20.5586C656.572 11.4098 663.654 7.14074 665.981 5.84158C669.104 4.09903 672.209 3.10528 674.249 2.53678C678.479 1.35744 682.762 0.784894 684.675 0.537912Z" fill="black"/>
<path d="M632.914 75.487C657.811 75.4541 653.648 80.0959 651.221 102.072L647.862 132.539C645.442 155.317 644.244 181.552 639.402 203.603C636.228 215.888 629.935 229.158 621.298 238.601C602.991 258.629 560.015 258.538 538.394 244.371C532.298 240.379 533.762 222.171 538.476 216.956C541.461 213.655 549.773 222.004 558.437 224.192C587.175 231.449 606.318 214.827 607.193 185.887C603.518 188.973 600.983 190.863 597.022 193.573C583.278 201.422 566.155 203.689 551.479 196.556C539.737 190.849 535.923 176.684 536.436 164.546C537.095 148.945 539.585 133.047 541.118 117.481C542.12 107.378 542.842 97.1968 543.951 87.1068C544.198 84.8581 544.971 82.2644 546.049 80.2779C547.215 78.1242 550.972 76.5454 553.424 76.1873C559.59 75.2872 572.441 74.7294 577.733 78.1711C579.006 78.9982 580.179 80.7151 580.331 82.261C580.774 87.7652 579.824 93.6376 579.234 99.1506C577.428 115.975 575.419 132.792 573.639 149.618C573.005 155.581 571.992 165.163 577.637 169.108C581.763 171.987 587.643 171.975 592.447 171.351C600.342 170.155 605.602 163.69 609.905 157.738C610.944 145.493 615.709 85.1149 621.412 78.4899C624.03 75.4462 629.226 75.6937 632.914 75.487Z" fill="#7DECFC"/>
<path d="M938.881 44.9087C968.873 42.7962 963.423 53.1358 960.419 76.4526C964.215 76.3728 975.147 77.0105 978.099 77.166C987.221 77.6465 976.403 103.94 965.786 103.94C963.647 103.94 958.245 103.862 958.245 103.862C957.029 114.165 951.021 160.742 953.35 166.796C956.519 175.029 966.475 174.903 972.066 172.136C973.417 175.855 971.031 191.814 965.597 196.971C952.587 209.317 915.428 205.049 915.428 179.446C915.428 166.034 922.855 103.829 922.855 103.829C922.855 103.829 917.158 103.673 913.848 103.2C905.572 102.02 911.613 76.7964 917.454 76.4526L925.698 76.3443C926.68 68.3745 927.392 56.5341 929.718 49.7313C930.942 46.1503 935.065 45.1774 938.881 44.9087Z" fill="#7DECFC"/>
<path fill-rule="evenodd" clip-rule="evenodd" d="M52.0251 22.1836C55.6643 21.6372 60.1127 21.7916 63.7633 22.196C66.8461 22.537 71.318 23.3099 73.2855 25.9764C75.9307 29.5637 69.526 76.3909 68.5565 84.1527C69.6159 83.3416 70.7005 82.5633 71.8092 81.82C90.3735 69.2295 119.967 71.8963 131.357 91.4761C149.944 123.426 139.621 175.325 109.112 195.808C89.8616 206.7 71.0591 204.812 54.1513 190.954C49.8392 200.642 47.6283 201.315 36.4733 201.411C32.0129 201.449 25.2047 201.229 21.9621 197.829C20.8797 191.029 26.8824 139.42 27.8323 130.338C28.6871 122.104 36.9251 34.879 39.3337 26.785C40.1968 23.8846 48.4662 22.6432 52.0251 22.1836ZM98.3147 159.447C105.946 142.793 111.753 101.271 83.2844 102.673C74.9256 103.841 70.8731 106.406 65.139 112.675C63.3628 131.189 61.3902 149.684 59.2231 168.155C66.2873 173.524 70.8577 175.53 80.0409 174.258C80.7578 174.156 81.4664 173.996 82.1502 173.758C89.4156 171.227 95.0147 166.649 98.3147 159.447Z" fill="#7DECFC"/>
<path d="M229.544 79.204C235.122 74.6506 245.383 75.1905 252.195 75.7192C254.543 75.9013 257.118 76.3725 259.205 77.5928C261.031 78.6615 262.059 80.66 262.147 82.7747C262.147 97.8525 256.341 144.161 255.41 152.674C253.491 168.265 249.977 177.839 270.108 173.042C270.115 178.987 269.969 188.969 267.081 194.123C260.952 205.061 240.765 204.361 231.256 198.999C224.369 195.115 221.644 189.993 219.638 182.769L219.326 183.125C209.049 194.783 198.546 201.42 182.292 202.477C173.496 203.049 163.871 201.358 157.179 195.273C151.266 189.897 148.378 180.709 148.38 172.8C148.385 154.76 156.696 84.9365 156.696 84.9365C157.942 74.9948 168.921 75.7419 176.275 75.4731C196.806 75.4503 192.648 83.8302 190.904 99.8555C190.904 99.8555 184.842 152.903 184.546 157.157C183.844 167.271 187.043 175.304 200.53 173.073C209.177 171.642 214.359 165.694 219.264 159.216L224.409 110.147C225.327 101.174 226.151 91.2372 227.623 82.6107C227.942 81.2581 228.437 80.1072 229.544 79.204Z" fill="#7DECFC"/>
<path fill-rule="evenodd" clip-rule="evenodd" d="M1045.91 72.6661C1058.61 72.6661 1076.94 76.4526 1085.83 87.2856C1098.97 102.278 1096.23 130.259 1080.79 142.733C1068.95 152.302 1044.59 159.731 1016.97 147.346C1011.27 171.351 1051.98 190.437 1076.94 164.394C1076.94 164.394 1083.64 173.47 1086.75 179.886C1088.96 184.452 1087.11 187.992 1084.37 190.437C1065.57 207.256 1023.09 212.07 997.256 190.192C974.247 170.707 978.892 116.195 998.916 93.6479C1014.42 76.1873 1027.46 73.7735 1045.91 72.6661ZM1057.27 120.786C1066.4 104.979 1051.73 99.5046 1040.35 102.557C1027.89 105.9 1022.23 113.467 1019.17 127.372C1026.27 128.298 1033.85 128.532 1039.38 128.298C1043.94 128.106 1054.11 126.251 1057.27 120.786Z" fill="#7DECFC"/>
<path d="M358.963 74.8394C389.159 75.8271 392.183 94.0612 390.075 115.086C389.121 124.611 385.507 147.322 384.494 156.649C383.154 168.584 384.052 177.233 399.972 172.973C400.046 174.48 400.09 175.989 400.104 177.497C400.233 196.453 394.278 202.909 374.427 202.516C365.915 202.601 353.29 197.177 350.751 187.635C344.971 165.905 352.937 141.081 353.619 118.646C354.239 98.2907 336.631 99.8773 324.882 110.76C322.319 113.134 321.171 115.058 319.684 117.45C319.684 117.45 314.13 174.091 313.602 179.709C312.805 188.196 311.205 197.017 306.971 199.58C303.045 201.957 276.579 202.836 276.918 195.688C278.33 165.888 283.528 135.943 285.632 106.074C286.094 99.6174 284.705 90.0441 286.678 83.6474C286.859 83.0601 287.114 82.494 287.559 82.0701C292.094 77.7483 312.745 75.2086 317.259 78.4736C320.861 81.0799 321.106 88.2661 321.624 92.1585C336.258 77.8829 347.46 74.8394 358.963 74.8394Z" fill="#7DECFC"/>
<path d="M489.078 74.8394C519.273 75.8271 522.298 94.0612 520.19 115.086C519.235 124.611 515.622 147.322 514.609 156.649C513.269 168.584 514.167 177.233 530.087 172.973C530.161 174.48 530.205 175.989 530.219 177.497C530.348 196.453 524.393 202.909 504.542 202.516C496.03 202.601 483.405 197.177 480.866 187.635C475.086 165.905 483.052 141.081 483.734 118.646C484.354 98.2907 466.746 99.8773 454.997 110.76C452.434 113.134 451.286 115.058 449.799 117.45C449.799 117.45 444.245 174.091 443.717 179.709C442.92 188.196 441.32 197.017 437.086 199.58C433.16 201.957 406.693 202.836 407.032 195.688C408.444 165.888 413.643 135.943 415.747 106.074C416.208 99.6174 414.82 90.0441 416.793 83.6474C416.974 83.0601 417.228 82.494 417.673 82.0701C422.209 77.7483 442.86 75.2086 447.374 78.4736C450.976 81.0799 451.221 88.2661 451.739 92.1585C466.372 77.8829 477.575 74.8394 489.078 74.8394Z" fill="#7DECFC"/>
<path fill-rule="evenodd" clip-rule="evenodd" d="M687.464 22.1836C691.103 21.6372 695.552 21.7916 699.202 22.196C702.285 22.537 706.757 23.3099 708.725 25.9764C711.37 29.5637 704.965 76.3909 703.996 84.1527C705.055 83.3416 706.14 82.5633 707.248 81.82C725.813 69.2295 755.406 71.8963 766.796 91.4761C786.175 123.426 775.06 175.325 744.551 195.808C725.301 206.7 706.498 204.812 689.59 190.954C685.278 200.642 683.067 201.315 671.912 201.411C667.452 201.449 660.644 201.229 657.401 197.829C656.319 191.029 662.321 139.42 663.271 130.338C664.126 122.104 672.364 34.879 674.773 26.785C675.636 23.8846 683.905 22.6432 687.464 22.1836ZM733.754 159.447C741.385 142.793 747.192 101.271 718.723 102.673C710.365 103.841 706.312 106.406 700.578 112.675C698.802 131.189 696.829 149.684 694.662 168.155C701.726 173.524 706.297 175.53 715.48 174.258C716.197 174.156 716.906 173.996 717.589 173.758C724.855 171.227 730.454 166.649 733.754 159.447Z" fill="#7DECFC"/>
<path d="M881.606 75.487C906.503 75.4541 902.34 80.0959 899.913 102.072L896.554 132.539C894.133 155.317 892.935 181.552 888.094 203.603C884.919 215.888 878.627 229.158 869.99 238.601C851.683 258.629 808.707 258.538 787.086 244.371C780.99 240.379 782.454 222.171 787.168 216.956C790.153 213.655 798.465 222.004 807.13 224.192C835.867 231.449 855.01 214.827 855.885 185.887C852.209 188.973 849.675 190.863 845.714 193.573C831.97 201.422 814.847 203.689 800.171 196.556C788.429 190.849 784.615 176.684 785.128 164.546C785.787 148.945 788.277 133.047 789.81 117.481C790.812 107.378 791.534 97.1968 792.643 87.1068C792.89 84.8581 793.663 82.2644 794.741 80.2779C795.907 78.1242 799.664 76.5454 802.117 76.1873C808.282 75.2872 821.133 74.7294 826.425 78.1711C827.698 78.9982 828.871 80.7151 829.023 82.261C829.466 87.7652 828.516 93.6376 827.926 99.1506C826.12 115.975 824.112 132.792 822.331 149.618C821.697 155.581 820.684 165.163 826.329 169.108C830.455 171.987 836.335 171.975 841.138 171.351C849.034 170.155 854.294 163.69 858.597 157.738C859.636 145.493 864.401 85.1149 870.104 78.4899C872.721 75.4462 877.918 75.6937 881.606 75.487Z" fill="#7DECFC"/>
</svg>
