<svg width="1064" height="334" viewBox="0 0 1064 334" fill="none" xmlns="http://www.w3.org/2000/svg">
<path d="M2.39808e-05 31.0562C-0.0207989 14.3299 13.5217 0.753699 30.248 0.732875L1033.03 2.39834e-05C1049.76 -0.0208001 1063.33 13.5217 1063.35 30.248L1063.69 302.819C1063.71 319.545 1050.17 333.122 1033.45 333.142L30.6627 333.875C13.9364 333.896 0.360169 320.354 0.339346 303.627L2.39808e-05 31.0562Z" fill="#7DECFC"/>
<path d="M340.477 39.9366V99.094C340.477 100.445 339.381 101.541 338.03 101.541C336.88 101.541 335.886 100.741 335.639 99.6181L322.276 38.6726C321.651 35.8235 319.127 33.7932 316.21 33.7932H285.573C282.139 33.7932 279.357 36.5809 279.364 40.0152L279.879 293.9C279.886 297.32 282.656 300.09 286.076 300.097L311.375 300.149C314.78 300.156 317.555 297.421 317.597 294.016L318.455 224.588C318.47 223.334 319.491 222.326 320.744 222.326C321.791 222.326 322.704 223.036 322.963 224.049L341.211 295.479C341.915 298.233 344.398 300.157 347.241 300.151L372.061 300.098C375.485 300.09 378.257 297.313 378.257 293.888V39.6659C378.257 36.2107 375.437 33.42 371.982 33.4569L346.62 33.7276C343.216 33.764 340.477 36.5332 340.477 39.9366Z" fill="black"/>
<path d="M453.773 39.9366V99.094C453.773 100.445 452.678 101.541 451.326 101.541C450.177 101.541 449.182 100.741 448.936 99.6181L435.572 38.6726C434.947 35.8235 432.424 33.7932 429.507 33.7932H398.87C395.436 33.7932 392.654 36.5809 392.661 40.0152L393.176 293.9C393.183 297.32 395.953 300.09 399.372 300.097L424.672 300.149C428.076 300.156 430.852 297.421 430.894 294.016L431.751 224.588C431.767 223.334 432.787 222.326 434.041 222.326C435.087 222.326 436.001 223.036 436.26 224.049L454.508 295.479C455.211 298.233 457.695 300.157 460.537 300.151L485.358 300.098C488.782 300.09 491.554 297.313 491.554 293.888V39.6659C491.554 36.2107 488.733 33.42 485.278 33.4569L459.916 33.7276C456.513 33.764 453.773 36.5332 453.773 39.9366Z" fill="black"/>
<path d="M258.669 33.8093C262.066 33.8305 264.811 36.5031 264.819 39.9004C264.905 76.0504 264.8 231.037 264.797 247.735C264.796 265.748 267.671 284.524 249.385 295.405C246.041 297.406 242.357 298.775 238.518 299.444C234.012 300.231 225.446 300.503 216.932 300.396C208.419 300.503 199.854 300.231 195.348 299.444C191.508 298.775 187.824 297.406 184.48 295.405C166.195 284.524 169.069 265.748 169.068 247.735C169.065 231.037 168.96 76.0504 169.046 39.9004C169.054 36.5031 171.799 33.8305 175.196 33.8093L206.157 33.6163C209.602 33.5949 212.405 36.3809 212.405 39.8251V179.828C212.388 185.484 211.603 199.104 214.218 203.437C214.862 204.505 215.846 204.906 216.932 204.801C218.018 204.906 219.003 204.505 219.647 203.437C222.262 199.104 221.477 185.484 221.46 179.828V39.8251C221.46 36.3808 224.264 33.5948 227.708 33.6163L258.669 33.8093Z" fill="black"/>
<path d="M549.07 120.225V39.9817C549.07 36.5524 546.29 33.7724 542.86 33.7724H512.159C508.727 33.7724 505.945 36.5567 505.949 39.9888L506.115 185.197C506.128 196.124 514.99 204.975 525.917 204.975C529.015 204.975 531.527 207.487 531.527 210.586V294.075C531.527 297.505 534.307 300.285 537.737 300.285H570.286C573.716 300.285 576.496 297.505 576.496 294.075V210.316C576.496 207.365 578.885 204.97 581.837 204.963C592.254 204.94 600.687 196.488 600.687 186.07V39.9817C600.687 36.5523 597.907 33.7723 594.478 33.7723L565.784 33.7724C562.355 33.7724 559.575 36.5524 559.575 39.9817V120.225C559.575 123.126 557.223 125.478 554.322 125.478C551.421 125.478 549.07 123.126 549.07 120.225Z" fill="black"/>
<path d="M780.072 120.225V39.9817C780.072 36.5524 777.292 33.7724 773.862 33.7724H743.161C739.729 33.7724 736.947 36.5567 736.951 39.9888L737.117 185.197C737.13 196.124 745.992 204.975 756.919 204.975C760.017 204.975 762.529 207.487 762.529 210.586V294.075C762.529 297.505 765.309 300.285 768.738 300.285H801.288C804.718 300.285 807.498 297.505 807.498 294.075V210.316C807.498 207.365 809.887 204.97 812.839 204.963C823.256 204.94 831.689 196.488 831.689 186.07V39.9817C831.689 36.5523 828.909 33.7723 825.48 33.7723L796.786 33.7724C793.357 33.7724 790.577 36.5524 790.577 39.9817V120.225C790.577 123.126 788.225 125.478 785.324 125.478C782.423 125.478 780.072 123.126 780.072 120.225Z" fill="black"/>
<path d="M1010.15 33.8819L949.017 33.8813C945.587 33.8812 942.812 36.5069 942.819 39.9363C942.899 75.8789 943.357 258.224 943.447 294.2C943.456 297.63 946.243 300.363 949.672 300.354L1010.47 300.199C1013.89 300.19 1016.66 297.413 1016.66 293.99V210.786C1016.66 207.357 1013.88 204.577 1010.45 204.577H993.657C990.242 204.577 987.468 201.819 987.447 198.405L987.284 171.077C987.263 167.633 990.049 164.83 993.493 164.83H1008.39C1011.81 164.83 1014.59 162.05 1014.59 158.621V115.07C1014.59 111.641 1011.81 108.86 1008.39 108.86H993.456C990.026 108.86 987.246 106.08 987.246 102.651V91.5889C987.246 88.1595 990.026 85.3795 993.456 85.3795H1010.15C1013.58 85.3795 1016.36 82.5995 1016.36 79.1702V40.0913C1016.36 36.662 1013.58 33.8819 1010.15 33.8819Z" fill="black"/>
<path d="M911.862 293.768V92.1197C911.862 88.6903 914.642 85.9103 918.071 85.9103H922.209C925.638 85.9103 928.418 83.1303 928.418 79.7009V40.0988C928.418 36.6694 925.638 33.8894 922.209 33.8894H852.289C848.86 33.8894 846.08 36.6694 846.08 40.0988V79.7009C846.08 83.1303 848.86 85.9103 852.289 85.9103H856.486C859.924 85.9103 862.708 88.7038 862.696 92.1417L861.981 293.746C861.969 297.184 864.752 299.978 868.19 299.978H905.652C909.082 299.978 911.862 297.198 911.862 293.768Z" fill="black"/>
<path fill-rule="evenodd" clip-rule="evenodd" d="M123.296 33.5946C140.442 33.5946 154.342 47.4947 154.342 64.6414V133.45C154.082 150.104 140.999 157.491 140.999 157.491C140.999 157.491 154.343 165.749 154.508 177.044V251.646C154.508 265.117 154.508 276.284 148.156 284.698C145.643 288.027 143.193 290.659 139.809 293.16C135.411 296.455 128.214 299.513 122.743 299.513H53.2396C49.8062 299.513 47.0244 296.735 47.0303 293.302C47.0925 257.383 47.406 76.5914 47.4674 39.6827C47.4732 36.257 50.2516 33.5947 53.6773 33.5946H123.296ZM98.7745 166.675C95.9168 166.675 93.6 168.992 93.6 171.849V199.677C93.6 202.535 95.9168 204.851 98.7745 204.851H103.774C106.632 204.851 108.949 202.534 108.949 199.677V171.849C108.949 168.992 106.632 166.675 103.774 166.675H98.7745ZM98.7745 85.7258C95.9167 85.7259 93.6 88.0425 93.6 90.9003V111.307C93.6001 114.164 95.9168 116.481 98.7745 116.481H103.774C106.631 116.481 108.948 114.164 108.948 111.307V90.9003C108.948 88.0425 106.631 85.7258 103.774 85.7258H98.7745Z" fill="black"/>
<path fill-rule="evenodd" clip-rule="evenodd" d="M691.342 33.5946C708.488 33.5946 722.388 47.4947 722.388 64.6414V133.45C722.128 150.076 709.089 157.466 709.046 157.491C709.046 157.491 722.388 165.749 722.554 177.044V251.646C722.554 265.117 722.554 276.284 716.202 284.698C713.69 288.027 711.239 290.659 707.855 293.16C703.457 296.455 696.26 299.513 690.789 299.513H621.286C617.852 299.513 615.071 296.735 615.076 293.302C615.139 257.383 615.452 76.5914 615.513 39.6827C615.519 36.2569 618.298 33.5946 621.723 33.5946H691.342ZM666.818 166.675C663.96 166.675 661.643 168.992 661.643 171.849V199.677C661.643 202.535 663.96 204.851 666.818 204.851H671.817C674.674 204.851 676.991 202.535 676.991 199.677V171.849C676.991 168.992 674.674 166.675 671.817 166.675H666.818ZM666.818 85.7258C663.96 85.7258 661.643 88.0425 661.643 90.9003V111.307C661.643 114.164 663.96 116.481 666.818 116.481H671.817C674.674 116.481 676.991 114.164 676.991 111.307V90.9003C676.991 88.0425 674.674 85.7258 671.817 85.7258H666.818Z" fill="black"/>
</svg>
