<svg width="1374" height="574" viewBox="0 0 1374 574" fill="none" xmlns="http://www.w3.org/2000/svg">
<path d="M0.0001346 469.961C205.699 316.659 62.6997 86.4901 7.46583 21.7327C185.738 126.867 283.87 86.1681 289.585 42.362C427.762 249.255 661.496 150.604 744.347 54.4211C928.084 253.343 1082.66 110.467 1147.42 0C1132.1 161.347 1279.37 277.941 1373.47 290.214C1242.55 324.988 1147.41 387.006 1217.38 498.856C1116.9 422.864 982.426 440.765 950.048 498.856C799.718 445.709 662.464 523.79 613.896 573.311C463.05 344.756 129.507 427.267 0.0001346 469.961Z" fill="#A79EF8"/>
<path fill-rule="evenodd" clip-rule="evenodd" d="M1122.41 245.979C1132.41 245.498 1146.34 247.489 1154.02 253.609C1178.69 273.26 1159.52 298.418 1138.45 308.911C1119.54 318.324 1104.15 321.315 1084.55 324.068C1108.33 346.354 1155.6 310.706 1164.57 314.435C1166.19 315.112 1167.25 316.362 1167.89 317.965C1171.42 326.789 1144.38 362.213 1115.69 365.081C1097.86 366.863 1073.09 364.291 1059 351.982C1035.9 331.794 1044.58 294.547 1062.95 274.263C1078.89 256.563 1099.02 247.518 1122.41 245.979ZM1126.14 283.597C1130.66 277.405 1123.56 273.349 1117.3 273.755C1098 275.005 1088.09 286.677 1082.79 302.526L1092.66 301.232C1104.3 298.708 1118.91 293.512 1126.14 283.597Z" fill="black"/>
<path d="M770.877 233.64C774.299 232.473 770.281 238.897 769.048 240.547C743.844 274.404 735.024 308.737 740.374 350.46C741.919 362.493 742.992 377.045 740.334 389.154C737.676 401.255 728.692 415.027 717.328 421.064C658.025 452.573 575.374 414.089 515.855 397.513C500.293 393.179 487.159 389.646 471.629 386.254C463.28 384.43 455.249 383.596 447.393 381.681L446.834 380.709C448.83 376.143 470.066 369.453 475.305 368.156C521.526 356.715 565.183 373.812 608.143 388.697C634.048 397.672 703.947 417.905 706.429 372.781C706.457 364.927 705.702 360.544 704.333 352.898C693.838 362.335 680.072 370.177 665.908 367.768C626.247 361.26 645.656 316.329 650.428 290.891C655.313 264.851 632.594 260.595 625.899 281.226C618.507 304.005 620.568 336.035 629.469 357.916C630.108 359.487 628.543 359.489 628.148 359.487C622.013 359.464 584.929 356.123 583.206 354.892C579.224 341.974 590.624 300.842 590.47 285.379C590.263 264.502 585.735 253.978 587.828 251.054C592.058 245.145 615.569 251.477 621.492 254.982L621.808 254.658C629.479 246.756 639.968 242.215 650.98 242.027C684.36 241.737 693.6 277.829 686.103 304.049C684.803 311.507 681.094 320.229 681.378 327.745C681.963 343.247 695.235 339.52 702.334 331.149C701.88 313.728 702.88 299.283 710.649 283.409C722.729 258.749 745.326 242.357 770.877 233.64Z" fill="black"/>
<path fill-rule="evenodd" clip-rule="evenodd" d="M754.435 175.66C761.897 175.379 777.117 177.801 785.29 179.695C813.675 186.649 849.92 198.818 867.236 223.559C879.81 241.522 868.315 259.269 852.407 269.302C881.769 285.292 877.288 317.912 858.183 340.976C836.394 367.282 781.889 363.719 754.753 357.623C737.628 353.776 754.287 330.97 758.285 323.071C778.492 283.142 796.892 248.306 769.049 200.327C762.064 188.29 748.04 175.901 754.435 175.66ZM813.682 279.027C812.463 292.62 807.723 308.133 797.789 329.523C803.566 330.48 811.952 329.818 818.576 326.539C845.529 313.192 846.784 278.825 813.682 279.027ZM798.887 202.942C808.831 222.76 812.182 233.559 812.517 256.35C819.411 256.35 827.607 253.568 831.889 249.199C855.213 225.394 819.009 207.135 798.887 202.942Z" fill="black"/>
<path d="M1002.75 244.187C1001.2 241.696 997.38 242.082 994.666 242.385C970.199 244.608 960.323 248.145 952.179 273.401C949.749 280.105 948.193 287.049 946.653 293.968C945.586 298.764 944.859 306.036 942.445 310.188C933.233 326.011 915.077 322.017 914.344 303.323C913.504 281.88 925.498 262.674 938.39 246.622C939.168 245.671 939.833 244.564 938.549 244.187C915.115 240.039 891.531 267.917 885.164 286.951C878.797 305.986 879.212 322.571 887.351 336.938C899.237 357.934 922.483 353.694 938.453 341.487C935.653 351.479 931.298 368.353 922.734 374.891C898.705 393.234 872.84 374.356 849.97 371.332C799.039 364.596 770.233 388.783 772.334 394.875C842.565 394.875 914.344 447.121 953.605 394.875C970.33 372.618 973.613 339.313 978.753 312.531C980.752 301.782 983.415 291.168 986.726 280.75C992.993 261.033 1003.88 246.016 1002.75 244.187Z" fill="black"/>
<path d="M381.173 319.432C363.751 302.805 374.884 266.947 404.805 238.352C385.221 238.352 361.406 250.728 348.254 269.242C333.405 290.145 328.15 333.287 352.793 349.709C372.876 363.093 395.467 354.059 411.877 338.635C414.421 344.237 430.574 365.571 455.254 344.89C444.002 331.676 430.835 282.137 469.79 239.995C441.446 234.771 416.132 259.415 410.58 285.096C407.762 298.126 410.12 320.222 392.046 322.393C389.128 322.8 383.921 322.054 381.173 319.432Z" fill="black"/>
<path d="M536.073 233.851C556.711 231.164 571.472 244.14 574.933 263.925C579.129 287.908 568.411 309.026 569.582 332.662C569.921 339.503 572.964 346.005 576.072 351.96C576.731 353.221 577.255 353.474 576.101 354.289C572.081 357.128 542.54 355.793 536.625 349.674C517.403 329.784 542.765 294.832 539.103 271.809C536.738 256.939 522.725 258.743 515.461 270.08C514.869 271.217 514.308 272.369 513.777 273.535C505.669 291.555 504.466 328.088 512.515 346.201C513.311 347.993 513.213 348.759 512.521 350.25C510.349 354.923 464.527 351.183 462.503 349.815C460.926 346.403 467.156 325.633 468.474 320.341C472.775 303.066 477.061 285.908 478.33 268.064C478.906 259.958 476.711 250.418 475.354 242.37C482.716 236.261 503.055 241.867 510.876 246.656C517.456 239.257 526.541 235.565 536.073 233.851Z" fill="black"/>
<path d="M1070.55 172.205C1076.8 187.204 1069.75 204.615 1064.71 216.3C1078.35 219.288 1092.61 223.698 1106.64 230.04C1098.79 238.044 1077.09 252.028 1051.11 246.613C1046.66 256.339 1042.67 265.127 1041.71 267.695C1032.99 291.253 1020.25 327.863 1042.43 349.485C1044.42 351.421 1048.45 353.553 1048.06 356.22C1044.91 358.447 1034.17 358.719 1029.86 359.042C990.382 359.69 981.578 345.02 990.408 308.303C993.733 294.48 1004.53 266.604 1020.48 238.037C990.628 228.906 962.874 217.695 988.507 212.411C998.157 210.833 1015.59 209.817 1036.59 211.875C1046.75 196.975 1058.19 183.06 1070.55 172.205Z" fill="black"/>
<path d="M703.119 159.905C704.146 159.905 705.057 160.569 705.383 161.553C712.127 181.938 728.004 197.937 748.243 204.734C749.218 205.062 749.877 205.984 749.877 207.023C749.877 208.062 749.218 208.984 748.243 209.312C728.004 216.109 712.127 232.108 705.383 252.494C705.057 253.478 704.146 254.141 703.119 254.141C702.092 254.141 701.18 253.478 700.855 252.494C694.111 232.109 678.233 216.109 657.994 209.312C657.018 208.984 656.36 208.062 656.36 207.023C656.36 205.984 657.018 205.062 657.994 204.734C678.233 197.937 694.111 181.938 700.855 161.553C701.18 160.569 702.092 159.905 703.119 159.905Z" fill="black"/>
<path fill-rule="evenodd" clip-rule="evenodd" d="M175.072 145.191C171.274 144.261 166.758 143.155 163.33 142.888C199.355 197.418 247.17 321.186 150.226 380.016C171.613 374.194 202.182 371.089 229.433 368.32C250.427 366.187 269.452 364.254 280.793 361.433C290.915 358.916 301.096 356.198 309.66 349.087C341.791 322.406 332.343 275.358 293.531 261.298C301.553 256.461 307.882 250.315 310.911 240.314C318.073 216.664 289.299 195.705 272.191 184.871C243.2 166.513 210.584 153.705 177.339 145.742C176.626 145.572 175.865 145.386 175.072 145.191ZM278.413 286.787C270.578 275.847 255.739 272.635 242.746 273.27C243.208 297.259 241.711 316.478 235.803 339.993C248.082 339.491 260.191 337.104 267.063 332.289C275.384 326.458 281.614 319.753 283.476 309.37C284.938 301.467 283.109 293.31 278.413 286.787ZM214.002 179.939C226.716 204.223 233.604 219.84 239.318 246.73C248.452 246.661 256.009 245.039 263.012 238.539C267.243 234.052 270.596 228.708 270.156 222.372C268.488 198.383 232.708 184.151 214.002 179.939Z" fill="black"/>
</svg>
