<svg width="1123" height="468" viewBox="0 0 1123 468" fill="none" xmlns="http://www.w3.org/2000/svg">
<path d="M718.416 2.10785C734.744 -2.96122 752.539 1.26592 764.843 13.1359C777.148 25.006 782.011 42.6383 777.532 59.138C773.635 73.495 770.059 93.7804 767.287 114.617C768.333 114.848 769.386 115.096 770.444 115.367C781.582 118.224 791.311 122.835 799.703 128.633C807.169 126.17 815.347 125.55 823.58 127.205C829.036 128.302 835.63 129.315 842.593 130.34C845.874 128.804 850.366 126.742 854.862 124.679C856.761 116.336 860.936 108.559 867.084 102.285C871.678 97.5964 877.134 93.994 883.063 91.609C883.358 88.6258 883.644 85.91 883.914 83.6697L884.107 82.2694C886.287 67.8495 895.068 55.2317 907.901 48.1923C921.148 40.9264 937.088 40.4933 950.709 47.03C956.466 49.7923 977.846 57.7745 988.177 61.5312C1006.5 68.1948 1018.32 85.2295 1019 103.859C1026.43 106.601 1033.06 111.184 1038.24 117.193C1038.78 117.183 1039.32 117.17 1039.86 117.17C1068.92 117.17 1098.39 130.266 1113.63 158.111C1124.31 177.636 1125.02 199.001 1118.52 218.294C1120.88 224.055 1122.1 230.322 1122 236.772L1121.31 278.775C1121.04 295.258 1112.12 310.388 1097.84 318.613C1078.76 329.597 1055.63 335.721 1032.9 335.695C1023.87 335.685 1014.17 334.675 1004.41 332.236C1002.18 333.816 999.784 335.216 997.247 336.404C983.553 342.817 966.474 347.077 948.042 345.181C943.913 344.756 939.892 344.066 935.993 343.126C930.789 355.294 924.251 367.158 916.289 379.029C876.01 439.082 806.82 457.264 757.481 467.016C742.843 469.908 727.706 465.656 716.713 455.567C705.721 445.477 700.188 430.757 701.819 415.925C703.143 403.879 706.277 385.363 708.811 371.095C710.125 363.693 711.364 356.963 712.275 352.086C712.73 349.645 713.106 347.66 713.368 346.279C713.499 345.59 713.599 345.049 713.67 344.678C713.706 344.492 713.734 344.347 713.753 344.247C713.762 344.199 713.77 344.16 713.776 344.133C713.778 344.12 713.779 344.109 713.78 344.101L713.785 344.092V344.083C714.917 338.191 717.135 332.72 720.209 327.866C718.377 327.4 716.578 326.868 714.805 326.291C708.473 329.96 702.059 333.583 698.524 335.407C697.977 335.689 697.422 335.953 696.867 336.212C689.77 354.171 679.466 371.326 664.543 386.365C643.889 407.178 617.219 421.1 585.402 429.26C565.215 434.436 544.035 425.659 533.428 407.721C526.742 396.414 521.126 385.018 516.259 374.888C511.142 364.236 507.072 355.472 502.472 346.723C501.168 344.244 500.103 341.676 499.273 339.054C499.238 339.002 499.203 338.95 499.168 338.898C494.664 332.214 490.909 325.691 487.774 319.299C487.516 319.399 487.261 319.502 487.005 319.601C481.814 321.61 477.213 323.379 472.335 325.367C469.022 328.152 464.776 332.133 460.382 336.542C457.696 339.236 455.352 341.685 453.692 343.451C452.868 344.328 452.225 345.024 451.807 345.478C451.598 345.705 451.444 345.87 451.354 345.968C451.309 346.017 451.28 346.05 451.267 346.064L449.56 347.853C440.766 356.591 428.835 361.515 416.371 361.471C403.073 361.424 390.418 355.726 381.566 345.803C374.22 337.568 368.533 329.07 364.132 320.553L346.555 328.255C342.4 330.075 338.067 331.247 333.692 331.805C326.009 335.325 318.032 338.862 311.554 341.813C295.94 348.925 277.687 346.939 263.973 336.629C261.988 335.136 260.117 333.629 258.349 332.112C252.408 333.457 246.09 334.188 239.418 334.116C239.396 334.116 239.372 334.117 239.35 334.116C221.125 333.893 203.615 327.55 189.55 316.27C189.384 316.381 189.222 316.498 189.055 316.609C174.025 326.597 155.989 333.281 135.956 333.046C128.645 332.959 121.584 331.952 114.82 330.172C107.779 334.772 101.272 338.873 97.5317 341.195C82.9093 350.273 64.4872 350.602 49.5483 342.056C34.6094 333.508 25.5576 317.46 25.9729 300.254C27.6554 230.621 22.4057 149.992 2.36101 89.2478C-1.60468 77.2303 -0.543107 64.1173 5.30792 52.8964C11.1594 41.6752 21.3029 33.2962 33.4272 29.6688L98.2318 10.2805C114.288 5.47692 131.688 9.61399 143.863 21.1301C156.039 32.6462 161.138 49.7909 157.234 66.0889C155.377 73.8456 153.657 89.539 152.42 109.313C154.527 109.518 156.663 109.796 158.827 110.151L161.037 110.535L161.334 110.595C175.596 113.351 187.681 118.64 197.796 125.64C206.215 122.637 215.583 122.007 224.894 124.341C231.836 126.081 241.02 127.563 251.536 129.402C254.784 127.787 258.262 126.524 261.932 125.682L302.356 116.406C314.365 113.651 326.878 115.754 337.248 122.085C343.886 121.362 350.802 120.662 357.624 120.149C359.477 120.01 361.326 119.992 363.161 120.071C378.14 113.534 393.739 111.759 407.319 113.226L410.06 113.569L411.804 113.839C421.632 115.465 431.421 118.972 440.335 124.592C442.939 123.968 445.608 123.559 448.32 123.389L482.292 121.257C484.444 121.122 486.589 121.149 488.712 121.307C505.229 115.169 522.663 114.233 536.604 116.955C545.879 118.766 554.71 122.084 562.696 127.009C565.615 126.543 568.613 126.344 571.66 126.446C579.234 126.698 587.787 127.743 594.028 128.519C597.909 129.001 601.203 129.414 604.072 129.75C606.849 128.176 609.823 126.86 612.977 125.855C619.179 123.88 625.391 121.937 631.614 120.03C630.013 103.163 627.834 88.3144 625.112 76.3527C619.681 52.4871 633.535 28.4602 656.91 21.2033L718.416 2.10785Z" fill="#A79EF8"/>
<path fill-rule="evenodd" clip-rule="evenodd" d="M732.31 46.8577C723.065 80.9164 716.096 139.284 714.948 174.557C727.192 162.994 741.804 156.39 758.803 160.751C790.264 168.82 800.772 205.73 793.249 234.241C788.248 253.204 778.692 267.985 761.618 278.103C744.519 287.277 727.802 284.787 713.04 272.451C707.846 276.328 683.212 290.577 677.036 293.765C684.898 210.478 682.691 118.188 670.803 65.9526L732.31 46.8577ZM739.12 191.575C730.703 191.752 725.206 195.939 720.413 202.732C715.515 209.674 713.014 220.902 714.679 230.38C716.722 241.619 724.31 250.186 736.358 249.671C767.276 248.348 768.751 191.504 739.12 191.575Z" fill="black"/>
<path fill-rule="evenodd" clip-rule="evenodd" d="M111.664 55.1701C105.25 81.9524 103.551 146.002 103.503 174.679C109.822 166.787 128.455 152.12 152.44 156.596C205.485 166.849 206.737 248.595 163.12 277.579C145.732 289.134 127.288 289.328 109.882 276.54C101.62 283.179 81.8984 295.744 72.8166 301.382C74.544 229.888 69.4147 142.914 46.8579 74.5589L111.664 55.1701ZM143.336 244.041C168.156 231.075 162.809 179.145 132.42 188.652C124.097 191.256 119.559 196.585 116.054 203.512C109.683 216.103 110.171 239.702 124.898 245.36C129.285 247.045 137.263 247.214 143.336 244.041Z" fill="black"/>
<path d="M892.534 158.986C910.562 256.015 911.761 301.66 877.377 352.925C848.679 395.711 797.485 411.343 748.397 421.044C750.655 400.511 759.8 352.925 759.8 352.925C782.811 350.587 799.709 346.855 820.603 336.399C850.393 321.684 866.476 297.341 868.281 264.332C865.412 267.181 862.232 269.704 858.808 271.856C840.461 283.167 819.318 276.559 811.972 256.015C802.612 229.818 807.853 199.527 814.344 173.139C824.717 175.225 838.276 177.063 848.78 178.599C844.077 194.229 836.788 220.625 840.664 235.97C846.018 257.169 868.729 245.663 869.153 224.237C869.555 203.77 867.693 192.256 862.435 172.795C871.881 168.373 892.534 158.986 892.534 158.986Z" fill="black"/>
<path d="M543.948 324.914C554.189 344.39 562.564 364.929 573.763 383.869C675.421 357.798 667.83 270.054 663.563 159.356C651.402 162.937 639.28 166.652 627.197 170.5C631.198 188.276 639.749 241.431 615.217 245.418C584.878 250.347 603.649 187.895 607.158 177.149C595.93 176.282 580.317 173.614 570.102 173.274C564.227 200.014 559.728 234.645 574.273 259.407C578.517 266.637 586.361 272.243 594.595 273.991C607.158 276.659 617.95 271.288 628.454 263.058C627.197 303.2 613.144 318.204 543.948 324.914Z" fill="black"/>
<path d="M403.434 159.952C390.86 158.156 372.216 162.236 360.443 183.821C360.722 178.174 360.954 172.524 361.137 166.873C349.837 167.722 338.237 169.113 326.957 170.393C330.313 186.27 335.173 231.487 327.755 285.33L364.67 269.159C363.613 247.664 361.137 215.464 378.311 198.213C384.385 192.112 393.672 192.374 395.255 202.658C400.545 237.021 385.659 279.999 416.534 314.61C416.534 314.61 434.533 294.718 447.832 285.049C413.847 244.216 441.001 195.941 422.66 171.061C417.982 164.715 411.187 161.06 403.434 159.952Z" fill="black"/>
<path d="M366.459 175.04C365.401 175.356 365.956 175.328 364.757 174.892C363.844 173.413 363.712 173.213 363.914 171.503C365.105 169.544 364.426 170.141 366.441 169.194C368.687 169.195 369.05 169.405 371.074 170.278L366.459 175.04Z" fill="#6E6E6E"/>
<path d="M972.167 105.567C962.926 102.206 938.812 93.2934 930.437 89.2742C928.841 102.512 926.147 138.582 926.147 138.582L900.55 135.075C902.203 145.552 906.685 170.408 906.685 170.408L923 171.338C921.75 183.086 920.561 194.84 919.435 206.6C916.549 236.944 909.464 294.104 952.836 298.565C961.217 299.427 969.768 297.529 977.374 293.968L977.051 270.11C959.183 270.11 937.248 264.071 956.48 175.975L985.302 180.926C985.302 180.926 997.057 158.903 1002.77 147.808L962.818 143.8C965.682 130.996 972.167 105.567 972.167 105.567Z" fill="black"/>
<path d="M312.836 162.074C311.788 194.786 303.896 228.401 308.588 261.015C309.994 270.783 314.144 278.698 320.39 286.329C311.137 290.684 301.461 294.92 292.132 299.17C281.343 291.059 277.078 283.231 272.25 270.783C271.121 271.978 269.975 273.157 268.813 274.32C261.03 282.067 251.144 287.381 239.924 287.26C230.791 287.148 222.079 283.402 215.714 276.85C203.597 264.287 202.273 247.535 202.546 231.106C203.081 213.656 209.006 186.697 213.503 169.791C223.829 172.379 238.959 174.695 249.8 176.678C243.831 195.793 239.236 213.189 238.483 233.334C237.476 260.28 261.218 261.777 269.306 239.247C276.708 218.623 274.063 192.788 272.414 171.349L312.836 162.074Z" fill="black"/>
<path d="M551.601 218.608C552.673 197.16 554.909 168.268 527.624 162.942C516.503 160.771 492.694 163.973 484.092 184.999L485.227 168.019L451.254 170.15C454.2 186.246 455.736 228.018 452.619 282.803C464.965 277.699 475.237 274.132 487.525 268.888C485.687 247.251 485.715 218.62 500.159 200.638C502.738 197.428 507.757 195.215 511.944 195.818C523.735 197.516 520.133 214.862 519.726 229.479C518.769 263.881 519.589 285.351 538.025 312.712C547.481 300.463 555.891 292.323 568.26 282.803C553.44 261.781 550.327 244.038 551.601 218.608Z" fill="black"/>
<path fill-rule="evenodd" clip-rule="evenodd" d="M1039.86 164.023C1071.23 164.024 1086.32 191.148 1067.64 215.27C1053.12 234.025 1031.96 240.856 1009.3 244.013C1020.62 274.416 1059.68 247.549 1075.15 235.997L1074.46 278C1050.88 291.577 1014.38 294.254 993.401 275.189C968.812 252.846 973.22 210.852 994.488 187.227C1007.07 173.248 1024.19 164.023 1039.86 164.023ZM1042.84 200.617C1048.15 192.277 1042.45 188.394 1034.67 189.949C1023.84 192.116 1016.22 200.617 1012.26 207.357C1007.44 215.578 1011.58 218.623 1020.35 216.223C1026.99 214.406 1037.35 209.248 1042.84 200.617Z" fill="black"/>
</svg>
